<?xml version="1.0" encoding="utf-8"?>
<!-- Generator: Adobe Illustrator 15.1.0, SVG Export Plug-In . SVG Version: 6.00 Build 0)  -->
<!DOCTYPE svg PUBLIC "-//W3C//DTD SVG 1.1//EN" "http://www.w3.org/Graphics/SVG/1.1/DTD/svg11.dtd">
<svg version="1.1" id="Layer_1" xmlns="http://www.w3.org/2000/svg" xmlns:xlink="http://www.w3.org/1999/xlink" x="0px" y="0px"
	 width="642.365px" height="668.717px" viewBox="0 -25.067 642.365 668.717" enable-background="new 0 -25.067 642.365 668.717"
	 xml:space="preserve">
<line fill="none" stroke="#58595B" stroke-width="0.414" stroke-miterlimit="10" x1="127.762" y1="134.364" x2="298.653" y2="289.277"/>
<path fill="#EFEFEF" d="M189.784,165.335c0,0.489-0.381,0.89-0.844,0.89H63.227c-0.46,0-0.839-0.399-0.839-0.89v-64.207
	c0-0.493,0.38-0.89,0.839-0.89h125.712c0.464,0,0.843,0.397,0.843,0.89L189.784,165.335L189.784,165.335z"/>
<line fill="none" stroke="#58595B" stroke-width="0.414" stroke-miterlimit="10" x1="299.761" y1="272.371" x2="353.991" y2="477.727"/>
<line fill="none" stroke="#58595B" stroke-width="0.414" stroke-miterlimit="10" x1="547.949" y1="385.515" x2="482.401" y2="484.357"/>
<line fill="none" stroke="#58595B" stroke-width="0.414" stroke-miterlimit="10" x1="482.401" y1="484.357" x2="540.805" y2="569.607"/>
<line fill="none" stroke="#58595B" stroke-width="0.6064" stroke-miterlimit="10" x1="2210.535" y1="536.095" x2="2218.698" y2="895.386"/>
<line fill="none" stroke="#58595B" stroke-width="0.414" stroke-miterlimit="10" x1="296.469" y1="295.141" x2="241.145" y2="564.265"/>
<polyline fill="none" stroke="#58595B" stroke-width="0.414" stroke-miterlimit="10" points="915.453,708.283 988.24,602.828 
	1103.323,682.251 "/>
<line fill="none" stroke="#58595B" stroke-width="0.149" stroke-miterlimit="10" x1="605.693" y1="1080.615" x2="598.61" y2="1058.922"/>
<circle opacity="0.8" fill="#6FAA30" stroke="#231F20" stroke-width="0.1342" stroke-miterlimit="10" enable-background="new    " cx="585.096" cy="948.645" r="55.163"/>
<circle opacity="0.8" fill="#DF3800" stroke="#231F20" stroke-width="0.1342" stroke-miterlimit="10" enable-background="new    " cx="623.428" cy="1002.251" r="55.164"/>
<circle opacity="0.8" fill="#5F78FF" stroke="#231F20" stroke-width="0.1342" stroke-miterlimit="10" enable-background="new    " cx="545.885" cy="1002.251" r="55.164"/>
<line fill="none" stroke="#58595B" stroke-width="0.414" stroke-miterlimit="10" x1="298.444" y1="289.303" x2="464.862" y2="459.032"/>
<line fill="none" stroke="#58595B" stroke-width="0.414" stroke-miterlimit="10" x1="299.761" y1="286.44" x2="558.496" y2="271.576"/>
<path fill="#4CCCAE" d="M595.778,416.401c0,0.477-0.252,0.854-0.563,0.854h-94.524c-0.312,0-0.563-0.383-0.563-0.854V344.02
	c0-0.477,0.252-0.854,0.563-0.854h94.524c0.312,0,0.563,0.383,0.563,0.854V416.401L595.778,416.401z"/>
<line fill="none" stroke="#58595B" stroke-width="0.414" stroke-miterlimit="10" x1="1040.526" y1="446.616" x2="872.11" y2="519.065"/>
<line fill="none" stroke="#58595B" stroke-width="0.414" stroke-miterlimit="10" x1="1038.865" y1="451.587" x2="1165.546" y2="572.468"/>
<line fill="none" stroke="#58595B" stroke-width="0.414" stroke-miterlimit="10" x1="482.401" y1="484.357" x2="420.583" y2="575.111"/>
<polyline fill="none" stroke="#58595B" stroke-width="0.414" stroke-miterlimit="10" points="383.612,88.857 299.761,286.44 
	215.444,55.325 "/>
<line fill="none" stroke="#58595B" stroke-width="0.414" stroke-miterlimit="10" x1="293.685" y1="295.979" x2="109.881" y2="304.259"/>
<line fill="none" stroke="#58595B" stroke-width="0.414" stroke-miterlimit="10" x1="136.375" y1="400.302" x2="294.513" y2="301.774"/>
<line fill="none" stroke="#58595B" stroke-width="0.414" stroke-miterlimit="10" x1="294.513" y1="301.774" x2="146.065" y2="501.679"/>
<line fill="none" stroke="#58595B" stroke-width="0.414" stroke-miterlimit="10" x1="97.798" y1="210.235" x2="299.476" y2="293.493"/>
<line fill="none" stroke="#58595B" stroke-width="0.414" stroke-miterlimit="10" x1="306.931" y1="277.764" x2="512.163" y2="163.437"/>
<path fill="#4CCCAE" d="M146.002,246.498c0,0.417-0.287,0.756-0.643,0.756H37.966c-0.354,0-0.644-0.339-0.644-0.756v-63.779
	c0-0.418,0.287-0.755,0.644-0.755h107.395c0.354,0,0.643,0.339,0.643,0.755L146.002,246.498L146.002,246.498z"/>
<path fill="#4873B9" d="M578.44,209.211c0,0.563-0.438,1.023-0.971,1.023H432.926c-0.529,0-0.965-0.459-0.965-1.023v-73.824
	c0-0.565,0.437-1.023,0.965-1.023h144.543c0.533,0,0.97,0.458,0.97,1.023L578.44,209.211L578.44,209.211z"/>
<path fill="#82C3D2" d="M457.629,112.217c0,0.467-0.427,0.845-0.957,0.845H313.286c-0.529,0-0.958-0.378-0.958-0.845V51.384
	c0-0.465,0.429-0.843,0.958-0.843h143.388c0.528,0,0.958,0.378,0.958,0.843L457.629,112.217L457.629,112.217z"/>
<image overflow="visible" enable-background="new    " width="757" height="133" xlink:href="logos/culturadigital_logo.png"  transform="matrix(0.1369 0 0 0.1369 330.9958 70.6487)">
</image>
<image overflow="visible" enable-background="new    " width="362" height="121" xlink:href="logos/toque_no_brasil.png"  transform="matrix(0.207 0 0 0.207 464.0486 156.4216)">
</image>
<path fill="#58595B" d="M277.716,81.201c0,0.476-0.358,0.858-0.81,0.858H155.717c-0.443,0-0.809-0.385-0.809-0.858V19.306
	c0-0.475,0.36-0.858,0.809-0.858h121.189c0.446,0,0.81,0.386,0.81,0.858V81.201z"/>
<image overflow="visible" enable-background="new    " width="221" height="77" xlink:href="logos/logo_teste2.png"  transform="matrix(0.3204 0 0 0.3204 180.9114 37.9216)">
</image>
<text transform="matrix(1 0 0 1 71.3909 210.9578)" fill="#FFFFFF" font-family="'Montserrat-Regular'" font-size="12.1574">Mapas</text>
<text transform="matrix(1 0 0 1 64.406 225.5476)" fill="#FFFFFF" font-family="'Montserrat-Regular'" font-size="12.1574">Culturais</text>
<path fill="#CE71AD" d="M155.926,336.802c0,0.418-0.288,0.754-0.642,0.754H47.887c-0.354,0-0.643-0.338-0.643-0.754v-63.78
	c0-0.42,0.288-0.758,0.643-0.758h107.396c0.354,0,0.642,0.342,0.642,0.758L155.926,336.802L155.926,336.802z"/>
<path fill="#EEE822" d="M137.273,450.766c0,0.418-0.288,0.754-0.643,0.754H29.235c-0.354,0-0.641-0.338-0.641-0.754v-63.777
	c0-0.42,0.286-0.758,0.641-0.758h107.396c0.354,0,0.642,0.34,0.642,0.758V450.766L137.273,450.766z"/>
<text transform="matrix(1 0 0 1 566.1394 934.9382)" fill="#FFFFFF" font-family="'SourceSansPro-Bold'" font-size="13.0068">.COM</text>
<text transform="matrix(1 0 0 1 620.3503 1017.3347)" fill="#FFFFFF" font-family="'SourceSansPro-Bold'" font-size="13.5449">.ORG</text>
<text transform="matrix(1 0 0 1 520.1199 1017.7576)" fill="#FFFFFF" font-family="'SourceSansPro-Bold'" font-size="13.5449">.GOV</text>
<circle fill="#A7A9AC" cx="498.75" cy="952.899" r="3.39"/>
<circle fill="#A7A9AC" cx="598.553" cy="1059.885" r="3.39"/>
<circle fill="#A7A9AC" cx="660.407" cy="1064.192" r="3.391"/>
<circle fill="#A7A9AC" cx="582.25" cy="1070.006" r="3.39"/>
<circle fill="#A7A9AC" cx="616.231" cy="1066.703" r="3.389"/>
<circle fill="#A7A9AC" cx="664.105" cy="939.736" r="3.39"/>
<circle fill="#A7A9AC" cx="696.352" cy="968.431" r="3.389"/>
<circle fill="#A7A9AC" cx="645.057" cy="942.059" r="3.39"/>
<circle fill="#A7A9AC" cx="677.275" cy="953.355" r="3.389"/>
<circle fill="#A7A9AC" cx="501.205" cy="930.941" r="3.389"/>
<circle fill="#A7A9AC" cx="569.51" cy="888.253" r="3.389"/>
<circle fill="#A7A9AC" cx="491.108" cy="973.57" r="3.39"/>
<circle fill="#A7A9AC" cx="514.378" cy="944.56" r="3.389"/>
<circle fill="#A7A9AC" cx="620.391" cy="877.551" r="3.39"/>
<circle fill="#A7A9AC" cx="652.639" cy="906.247" r="3.39"/>
<circle fill="#A7A9AC" cx="601.344" cy="879.875" r="3.389"/>
<circle fill="#A7A9AC" cx="633.561" cy="891.169" r="3.389"/>
<circle fill="#A7A9AC" cx="519.072" cy="1066.598" r="3.39"/>
<circle fill="#A7A9AC" cx="692.632" cy="994.392" r="3.389"/>
<circle fill="#A7A9AC" cx="697.198" cy="1013.031" r="3.39"/>
<circle fill="#A7A9AC" cx="704.591" cy="979.698" r="3.39"/>
<circle fill="#A7A9AC" cx="590.226" cy="877.167" r="3.39"/>
<circle fill="#A7A9AC" cx="645.469" cy="881.092" r="3.39"/>
<circle fill="#A7A9AC" cx="655.031" cy="923.087" r="3.389"/>
<circle fill="#A7A9AC" cx="618.89" cy="889.951" r="3.391"/>
<circle fill="#A7A9AC" cx="543.99" cy="1076.469" r="3.39"/>
<path fill="#A7A9AC" d="M563.527,1071.965c1.108,1.508,0.784,3.629-0.726,4.733c-1.514,1.105-3.63,0.783-4.738-0.729
	c-1.107-1.508-0.783-3.629,0.726-4.734C560.299,1070.131,562.42,1070.453,563.527,1071.965z"/>
<circle fill="#A7A9AC" cx="480.781" cy="1021.881" r="3.39"/>
<circle fill="#A7A9AC" cx="681.068" cy="970.882" r="3.391"/>
<circle fill="#A7A9AC" cx="526.036" cy="917.125" r="3.389"/>
<circle fill="#A7A9AC" cx="532.28" cy="900.633" r="3.39"/>
<circle fill="#A7A9AC" cx="522.347" cy="935.955" r="3.389"/>
<circle fill="#A7A9AC" cx="543.625" cy="884.779" r="3.39"/>
<circle fill="#A7A9AC" cx="690.303" cy="1038.205" r="3.389"/>
<circle fill="#A7A9AC" cx="574.221" cy="871.765" r="3.389"/>
<circle fill="#A7A9AC" cx="556.669" cy="878.25" r="3.39"/>
<circle fill="#A7A9AC" cx="629.756" cy="907.302" r="3.389"/>
<circle fill="#A7A9AC" cx="670.75" cy="927.219" r="3.39"/>
<circle fill="#A7A9AC" cx="485.599" cy="1004.708" r="3.389"/>
<circle fill="#A7A9AC" cx="465.384" cy="966.568" r="3.39"/>
<circle fill="#A7A9AC" cx="707.721" cy="996.342" r="3.39"/>
<circle fill="#A7A9AC" cx="478.006" cy="987.351" r="3.391"/>
<circle fill="#A7A9AC" cx="635.199" cy="1069.76" r="3.39"/>
<circle fill="#A7A9AC" cx="570.395" cy="1061.017" r="3.391"/>
<circle fill="#A7A9AC" cx="589.756" cy="1079.288" r="3.39"/>
<circle fill="#A7A9AC" cx="675.404" cy="1054.245" r="3.39"/>
<circle fill="#A7A9AC" cx="504.884" cy="1078.235" r="3.389"/>
<circle fill="#A7A9AC" cx="484.664" cy="1040.094" r="3.39"/>
<circle fill="#A7A9AC" cx="523.546" cy="1082.698" r="3.39"/>
<circle fill="#A7A9AC" cx="497.284" cy="1060.876" r="3.389"/>
<circle fill="#A7A9AC" cx="683.033" cy="942.167" r="3.39"/>
<circle fill="#A7A9AC" cx="681.109" cy="931.625" r="3.39"/>
<circle fill="#A7A9AC" cx="486.164" cy="942.152" r="3.39"/>
<circle fill="#6FAA30" cx="179.089" cy="939.762" r="42.003"/>
<text transform="matrix(1 0 0 1 159.6951 919.0808)" fill="#FFFFFF" font-family="'SourceSansPro-Bold'" font-size="8.1756">PARTIDO</text>
<circle fill="#DFD820" cx="239.348" cy="958.152" r="42.002"/>
<text transform="matrix(1 0 0 1 227.3123 944.9275)" fill="#FFFFFF" font-family="'SourceSansPro-Bold'" font-size="8.1756">BANCO</text>
<circle fill="#5F78FF" cx="167.493" cy="991.683" r="42.004"/>
<text transform="matrix(1 0 0 1 138.2781 982.6511)" fill="#FFFFFF" font-family="'SourceSansPro-Bold'" font-size="8.1756">UNIVERSIDADE</text>
<circle fill="#DF3800" cx="233.757" cy="1009.488" r="42.002"/>
<text transform="matrix(1 0 0 1 215.3982 1000.2527)" fill="#FFFFFF" font-family="'SourceSansPro-Bold'" font-size="8.1756">EMISSORA</text>
<text transform="matrix(1 0 0 1 223.9543 1010.0632)" fill="#FFFFFF" font-family="'SourceSansPro-Bold'" font-size="8.1756">DE TV</text>
<text transform="matrix(1 0 0 1 230.5623 956.1716)" fill="#FFFFFF" font-family="'SourceSansPro-Bold'" font-size="8.1756">Troca</text>
<text transform="matrix(1 0 0 1 155.8445 934.1287)" fill="#FFFFFF" font-family="'SourceSansPro-Bold'" font-size="8.1756">Articulação</text>
<text transform="matrix(1 0 0 1 140.0378 997.9138)" fill="#FFFFFF" font-family="'SourceSansPro-Bold'" font-size="6.939">Conhecimento</text>
<text transform="matrix(1 0 0 1 217.1785 1020.9304)" fill="#FFFFFF" font-family="'SourceSansPro-Bold'" font-size="8.1756">Expansão</text>
<polyline fill="none" stroke="#58595B" stroke-width="0.414" stroke-miterlimit="10" points="1243.031,453.656 1036.046,443.723 
	1035.482,303.895 "/>
<line fill="none" stroke="#58595B" stroke-width="0.414" stroke-miterlimit="10" x1="1030.591" y1="452.412" x2="833.197" y2="441.239"/>
<line fill="none" stroke="#58595B" stroke-width="0.414" stroke-miterlimit="10" x1="1031.758" y1="455.379" x2="1010.72" y2="605.585"/>
<line fill="none" stroke="#58595B" stroke-width="0.414" stroke-miterlimit="10" x1="882.87" y1="369.207" x2="1035.218" y2="451.175"/>
<line fill="none" stroke="#58595B" stroke-width="0.414" stroke-miterlimit="10" x1="1042.668" y1="435.443" x2="1216.052" y2="323.254"/>
<path fill="#4CCCAE" d="M931.614,391.194c0,0.417-0.286,0.754-0.642,0.754H823.573c-0.354,0-0.641-0.338-0.641-0.754v-63.778
	c0-0.418,0.287-0.755,0.641-0.755H930.97c0.354,0,0.642,0.338,0.642,0.755L931.614,391.194L931.614,391.194z"/>
<path fill="#4873B9" d="M1305.268,492.376c0,0.563-0.435,1.022-0.966,1.022h-144.544c-0.533,0-0.965-0.46-0.965-1.022v-73.823
	c0-0.565,0.432-1.023,0.965-1.023h144.546c0.531,0,0.965,0.458,0.965,1.023L1305.268,492.376L1305.268,492.376z"/>
<path fill="#7AC143" d="M1032.215,495.739c-4.989-2.951-34.018-19.688-34.685-20.021c-0.744-0.376-0.842-0.669-0.979-1.943
	c0.002-7.11,0.007-39.375,0-39.939c-0.009-0.64,0.3-1.244,0.832-1.507c0.529-0.26,34.772-20.078,34.772-20.078
	c0.896-0.566,1.332-0.557,2.167,0.024c0.002,0.093,34.855,20.124,34.84,20.116c0.532,0.34,0.732,0.601,0.729,1.296
	c0.063,0.036,0,41.467,0,41.467l-35.855,20.7C1033.399,496.269,1033.105,496.269,1032.215,495.739z"/>
<path fill="#82C3D2" d="M1284.771,357.481c0,0.521-0.43,0.942-0.958,0.942h-143.521c-0.525,0-0.957-0.422-0.957-0.942v-67.964
	c0-0.521,0.432-0.943,0.957-0.943h143.521c0.528,0,0.958,0.424,0.958,0.943V357.481L1284.771,357.481z"/>
<text transform="matrix(1 0 0 1 1164.5906 336.4216)" font-family="'Montserrat-Regular'" font-size="7.0635">Site / Blog / Email / IM</text>
<text transform="matrix(1 0 0 1 852.4695 359.3767)" fill="#FFFFFF" font-family="'Montserrat-Regular'" font-size="12.1574">Gestão</text>
<path fill="#CE71AD" d="M879.24,473.781c0,0.418-0.416,0.756-0.927,0.756h-155.25c-0.512,0-0.926-0.34-0.926-0.756v-63.777
	c0-0.418,0.414-0.756,0.926-0.756h155.25c0.514,0,0.928,0.338,0.928,0.756L879.24,473.781L879.24,473.781z"/>
<text transform="matrix(1 0 0 1 786.0662 438.24)" fill="#FFFFFF" font-family="'Montserrat-Regular'" font-size="12.1574">Geo</text>
<text transform="matrix(1 0 0 1 744.9207 452.8298)" fill="#FFFFFF" font-family="'Montserrat-Regular'" font-size="12.1574">Referenciamento</text>
<path fill="#82C3D2" d="M1060.173,640.615c0,0.418-0.289,0.755-0.646,0.755H952.135c-0.355,0-0.646-0.339-0.646-0.755v-63.777
	c0-0.417,0.286-0.756,0.646-0.756h107.396c0.354,0,0.646,0.339,0.646,0.756L1060.173,640.615L1060.173,640.615z"/>
<text transform="matrix(1 0 0 1 986.3875 605.0779)" fill="#FFFFFF" font-family="'Montserrat-Regular'" font-size="12.1574">Dados</text>
<text transform="matrix(1 0 0 1 986.3875 619.6667)" fill="#FFFFFF" font-family="'Montserrat-Regular'" font-size="12.1574">Pessoais</text>
<path fill="#D82927" d="M1066.654,161.99h0.881c0.857,0,1.287,0.271,1.287,0.814c0,1.058-0.661,4.896-1.979,11.511
	c-1.323,6.617-1.986,10.948-1.986,12.994c-0.026,0.457-0.042,0.813-0.042,1.072v0.879c0,1.832-0.155,3.053-0.461,3.66
	c-0.313,0.605-0.992,0.911-2.049,0.911h-0.624c-0.587,0-0.957-0.128-1.117-0.388c-0.156-0.257-0.23-0.844-0.23-1.762V191
	c0-1.815,0.418-4.817,1.256-9.002c0.838-4.186,1.469-7.499,1.89-9.943c0.42-2.448,0.711-4.333,0.868-5.656
	c0.156-1.324,0.294-2.213,0.406-2.67C1065.031,162.568,1065.666,161.99,1066.654,161.99"/>
<path fill="#D82927" d="M1077.213,171.794h1.11c0.627,0,0.944,0.213,0.944,0.646v0.431c0,0.826-0.341,2.938-1.021,6.327
	c-0.681,3.392-1.096,5.974-1.239,7.748c-0.151,1.773-0.464,3.484-0.938,5.127c-0.341,1.159-1.142,1.737-2.398,1.737h-0.899
	c-0.673,0-1.01-0.256-1.01-0.771v-0.217c0-0.867,0.229-2.229,0.692-4.074c0.471-1.848,0.95-4.079,1.449-6.706
	c0.501-2.623,0.75-4.528,0.75-5.719l0.064-1.225c0-1.213,0.188-2.071,0.565-2.563
	C1075.671,172.042,1076.311,171.794,1077.213,171.794 M1080.194,162.804l0.646,0.085c0.472,0,0.706,0.243,0.706,0.729v0.405
	l-0.084,0.688c0,0.66-0.316,1.432-0.945,2.316c-0.302,0.415-0.792,0.622-1.479,0.622c-0.282,0.073-0.489,0.106-0.618,0.106
	l-0.435,0.043h-0.342c-0.904,0-1.354-0.271-1.354-0.815v-0.404l0.089-0.688c0-0.784,0.324-1.572,0.982-2.356
	c0.357-0.433,0.953-0.646,1.78-0.646c0.114-0.029,0.201-0.042,0.258-0.042l0.45-0.042L1080.194,162.804L1080.194,162.804z"/>
<path fill="#D82927" d="M1054.049,173.38c-0.929-0.845-2.126-1.267-3.604-1.267c-1.478,0-3.294,0.441-5.438,1.328
	c-3.267,1.347-5.684,3.713-7.257,7.104c-0.739,1.604-1.112,3.1-1.112,4.484v0.516c0,2.489,0.77,4.48,2.307,5.975
	c1.54,1.497,3.481,2.244,5.837,2.244c2.354,0,4.396-0.373,6.127-1.117c1.729-0.742,2.601-1.55,2.601-2.422
	c0-0.772-0.358-1.161-1.071-1.161c-0.345,0-1.368,0.246-3.069,0.729c-1.702,0.485-3.013,0.729-3.928,0.729
	c-1.589,0-2.812-0.458-3.668-1.375c-0.393-0.418-0.691-0.892-0.904-1.414c-0.027-0.021-0.052-0.08-0.073-0.178
	c0-0.002,0-0.004,0-0.01c-0.189-0.534-0.293-1.125-0.307-1.762c-0.329-2.511,0.018-4.214,1.479-6.646l0.055,0.002
	c0.303-0.547,0.837-1.166,1.608-1.851c1.263-1.124,2.442-1.685,3.551-1.685c0.101,0,0.232-0.017,0.406-0.044h0.837
	c0.729,0,1.476,0.21,2.229,0.633c0.759,0.425,1.143,1.049,1.143,1.881v0.426c0,0.617-0.157,0.976-0.477,1.075
	c-0.516,0.171-1.53,0.256-3.05,0.256l-3.13,0.234l-0.281,0.021l-0.686,0.063l-0.536,0.063c-0.262,0-0.609,0.036-1.035,0.102
	c-0.246,0.442-1.023,1.972-1.12,3.688c0.108-0.046,0.226-0.087,0.354-0.121c0.281-0.07,2.136-0.348,5.545-0.824
	c3.412-0.479,5.486-0.928,6.231-1.342c1.216-0.716,1.824-2.311,1.824-4.786C1055.432,175.41,1054.971,174.222,1054.049,173.38"/>
<path fill="#D82927" d="M1138.613,173.38c-0.923-0.845-2.125-1.267-3.604-1.267c-1.481,0-3.297,0.441-5.439,1.328
	c-3.263,1.347-5.679,3.713-7.254,7.104c-0.744,1.604-1.116,3.1-1.116,4.484v0.516c0,2.489,0.771,4.48,2.313,5.975
	c1.533,1.497,3.479,2.244,5.834,2.244c2.353,0,4.395-0.373,6.125-1.117c1.729-0.742,2.597-1.55,2.597-2.422
	c0-0.772-0.354-1.161-1.069-1.161c-0.347,0-1.364,0.246-3.066,0.729c-1.701,0.485-3.013,0.729-3.928,0.729
	c-1.588,0-2.813-0.458-3.668-1.375c-0.396-0.418-0.691-0.892-0.903-1.414c-0.026-0.021-0.053-0.08-0.074-0.178v-0.01
	c-0.189-0.534-0.293-1.125-0.305-1.763c-0.329-2.51,0.017-4.213,1.478-6.645l0.058,0.002c0.302-0.547,0.836-1.166,1.604-1.851
	c1.271-1.124,2.449-1.685,3.553-1.685c0.103,0,0.235-0.017,0.406-0.044h0.837c0.729,0,1.476,0.21,2.229,0.633
	c0.76,0.425,1.139,1.049,1.139,1.881v0.426c0,0.617-0.156,0.976-0.474,1.075c-0.513,0.171-1.531,0.256-3.047,0.256l-3.13,0.234
	l-0.281,0.021l-0.688,0.063l-0.531,0.063c-0.267,0-0.61,0.036-1.036,0.102c-0.247,0.442-1.024,1.97-1.12,3.688
	c0.104-0.046,0.226-0.087,0.354-0.121c0.283-0.07,2.137-0.348,5.547-0.824c3.412-0.479,5.489-0.928,6.233-1.342
	c1.215-0.716,1.823-2.311,1.823-4.786C1139.992,175.41,1139.532,174.222,1138.613,173.38"/>
<path fill="#D82927" d="M1111.49,180.25c0.73-2.354,1.586-4.576,1.586-4.576c0.229-0.705,0.227-1.449,0.154-2.054
	c-0.229-0.813-1.004-1.227-2.328-1.227c-0.833,0-1.433,0.207-1.804,0.622c-0.646,0.715-1.533,4.385-2.664,11.008
	c-0.685,3.978-1.137,6.433-1.351,7.358l-0.471,1.953c0,0.287,0.23,0.43,0.707,0.43c1.729,0,2.834-0.493,3.306-1.479
	c0.113-0.229,0.558-2.276,1.331-6.146c0.517-2.597,1.025-4.554,1.529-5.877C1111.488,180.26,1111.488,180.256,1111.49,180.25"/>
<path fill="#D82927" d="M1117.894,171.879c-0.829,0-1.658,0.313-2.487,0.946c-0.105,0.081-0.688,0.701-0.966,0.991
	c0.075,1.333-0.271,2.497-0.455,2.999c0.128-0.101,0.255-0.198,0.38-0.279c0.692-0.442,1.58-0.665,2.66-0.665
	c1.079,0,1.816-0.212,2.209-0.634c0.396-0.424,0.595-1.105,0.595-2.051C1119.823,172.317,1119.181,171.879,1117.894,171.879"/>
<path fill="#D82927" d="M1033.717,162.267h-0.39c-0.887,0-1.493,0.256-1.819,0.773c-0.33,0.515-0.738,2.077-1.229,4.688
	c-0.48,2.608-0.821,4.125-1.008,4.549c-0.188,0.424-0.629,0.633-1.328,0.633l-3.093-0.149c-2.989,0-5.638,1.469-7.938,4.398
	c-1.217,1.546-2.125,3.161-2.727,4.852c-0.615,1.716-0.922,3.617-0.922,5.708c0,2.06,0.439,3.654,1.331,4.784
	c0.886,1.144,2.06,1.726,3.519,1.736c0-0.014,0.007-0.021,0.021-0.021c1.048,0,2.174-0.404,3.366-1.201
	c0.213-0.163,0.932-0.781,1.537-2.019c0,0,0.453-1.021-0.494-1.497c0,0-0.004-0.001-0.008-0.003
	c-0.022,0.023-0.054,0.053-0.08,0.072c-0.81,0.639-1.543,0.955-2.199,0.955h-0.49c-0.723,0-1.273-0.342-1.678-1.029
	c-0.396-0.687-0.603-1.494-0.603-2.421v-0.84c0-2.474,0.751-4.991,2.253-7.553c0.688-1.174,1.438-2.021,2.252-2.545
	c0.816-0.521,1.513-0.781,2.081-0.781h0.521c0.696,0,1.229,0.218,1.59,0.655c0.354,0.438,0.533,0.931,0.533,1.488v0.773
	c0,2.833-0.75,5.75-2.252,8.754c-0.316,0.635-0.688,1.184-1.109,1.667c0.396,0.237,1.375,1.015,0.79,2.672v0.002
	c0.061,0.06,0.123,0.13,0.188,0.229c0.174,0.241,0.342,0.438,0.506,0.581c0.166,0.144,0.521,0.214,1.07,0.214
	c0.555,0,1.063-0.189,1.535-0.566c0.469-0.382,0.812-0.939,1.008-1.688c4.274-16.037,6.416-24.981,6.416-26.842
	C1034.875,162.611,1034.49,162.267,1033.717,162.267"/>
<path fill="#D82927" d="M1092.138,186.864l1.328,4.181c6.938-11.183,10.418-17.321,10.418-18.412c0-0.243-0.313-0.363-0.922-0.363
	c-1.604,0-3.01,0.82-4.209,2.466c-0.399,0.545-1.701,2.918-3.904,7.125C1093.646,184.156,1092.74,185.821,1092.138,186.864"/>
<path fill="#D82927" d="M1091.109,187.951c-0.087-0.237-0.197-0.674-0.33-1.305l-0.001-0.006c-0.215-1.038-0.487-2.604-0.821-4.698
	c-0.63-4.147-1.102-6.581-1.416-7.297c-0.313-0.687-0.739-1.244-1.283-1.673c-0.543-0.429-1.262-0.643-2.146-0.643
	c-0.514,0-0.771,0.206-0.771,0.621c0,0.414,0.275,1.638,0.839,3.67c0.557,2.029,1.178,4.978,1.863,8.841
	c0.688,3.857,1.082,5.978,1.183,6.351c0.301,1.087,0.956,1.63,1.974,1.63h0.435c0.67,0,1.321-0.378,1.964-1.132L1091.109,187.951z"
	/>
<path fill="#D82927" d="M979.569,180.25c0.73-2.354,1.587-4.576,1.587-4.576c0.227-0.705,0.223-1.449,0.153-2.054
	c-0.23-0.813-1.004-1.227-2.33-1.227c-0.83,0-1.429,0.207-1.802,0.622c-0.646,0.715-1.532,4.385-2.663,11.008
	c-0.688,3.978-1.14,6.433-1.354,7.358l-0.472,1.953c0,0.287,0.237,0.43,0.708,0.43c1.729,0,2.834-0.493,3.306-1.479
	c0.113-0.229,0.563-2.276,1.331-6.146c0.521-2.597,1.028-4.554,1.527-5.877C979.563,180.26,979.566,180.256,979.569,180.25"/>
<path fill="#D82927" d="M985.973,171.879c-0.829,0-1.656,0.313-2.488,0.946c-0.106,0.081-0.69,0.701-0.965,0.991
	c0.075,1.333-0.273,2.497-0.452,2.999c0.125-0.101,0.249-0.198,0.377-0.279c0.69-0.442,1.579-0.665,2.659-0.665
	c1.081,0,1.817-0.212,2.213-0.634c0.396-0.424,0.587-1.105,0.587-2.051C987.904,172.317,987.262,171.879,985.973,171.879"/>
<path fill="#D82927" d="M1006.691,173.38c-0.922-0.845-2.125-1.267-3.604-1.267c-1.479,0-3.295,0.441-5.438,1.328
	c-3.264,1.347-5.681,3.713-7.252,7.104c-0.746,1.604-1.117,3.1-1.117,4.484v0.516c0,2.489,0.771,4.48,2.312,5.975
	c1.53,1.497,3.479,2.244,5.836,2.244c2.354,0,4.395-0.373,6.126-1.117c1.729-0.742,2.598-1.55,2.598-2.422
	c0-0.772-0.354-1.161-1.075-1.161c-0.341,0-1.36,0.246-3.063,0.729c-1.703,0.485-3.018,0.729-3.932,0.729
	c-1.588,0-2.811-0.458-3.669-1.375c-0.392-0.418-0.688-0.892-0.899-1.414c-0.027-0.021-0.059-0.08-0.073-0.178v-0.01
	c-0.191-0.534-0.292-1.125-0.307-1.762c-0.33-2.511,0.018-4.214,1.479-6.646l0.053,0.002c0.307-0.547,0.834-1.166,1.606-1.851
	c1.266-1.124,2.45-1.685,3.553-1.685c0.102,0,0.235-0.017,0.408-0.044h0.836c0.729,0,1.472,0.21,2.229,0.633
	c0.762,0.425,1.14,1.049,1.14,1.881v0.426c0,0.617-0.158,0.976-0.474,1.075c-0.516,0.171-1.529,0.256-3.049,0.256l-3.135,0.234
	l-0.278,0.021l-0.687,0.063l-0.536,0.063c-0.263,0-0.609,0.036-1.034,0.102c-0.249,0.442-1.021,1.972-1.12,3.688
	c0.107-0.046,0.229-0.087,0.354-0.121c0.283-0.07,2.132-0.348,5.544-0.824c3.413-0.479,5.491-0.928,6.23-1.342
	c1.22-0.716,1.823-2.311,1.823-4.786C1008.073,175.41,1007.615,174.222,1006.691,173.38"/>
<path fill="#D82927" d="M945.709,172.663c0.181-0.062,0.468-0.125,0.63-0.217c0.048-0.024,0.094-0.062,0.138-0.095
	c-0.104-0.368-0.424-0.797-0.698-1.078C945.787,171.51,945.698,172.452,945.709,172.663"/>
<path fill="#D82927" d="M954.544,176.115c-0.009,0-0.014,0.004-0.021,0.004h0.021V176.115z"/>
<path fill="#D82927" d="M954.118,175.497c0.146,0.677,0.603,1.155,1.137,1.362c0.14-0.216,0.274-0.435,0.409-0.649
	c0.104-0.169,0.223-0.318,0.271-0.485C955.939,175.724,955.408,175.281,954.118,175.497"/>
<path fill="#D82927" d="M940.878,176.833c1.116,1.322,3.551,1.03,5.043,0.571c1.001-0.309,1.998-0.629,3.003-0.939
	c0.804-0.248,6.43-3.146,7.727-1.832c0.646-0.834,0.373-1.779,0.255-2.197c-1.469-5.257-14.884,6.964-15.554-0.056
	C940.94,172.755,940.048,175.847,940.878,176.833"/>
<path fill="#D82927" d="M958.051,184.503c-0.255-0.979-0.146-2.223,0.105-3.166c0.189-0.73,0.434-1.447,0.699-2.14
	c0.676-1.733,2.088-3.147,2.63-4.438c0.496-1.179,0.716-3.046-0.45-3.862c-0.732-0.518-2.114-0.632-2.948-0.396
	c-0.313,0.087-0.652,0.203-0.923,0.413l-0.009,0.006c0.166,0.104,0.314,0.258,0.44,0.432c0.301,0.412,0.467,0.896,0.538,1.394
	c0.126,0.562,0.059,1.355-0.236,1.895c-1.8,3.307-2.621,5.304-2.938,7.232c-0.135,0.802,0.021,1.217-0.104,2.028
	C956.218,183.691,957.427,183.984,958.051,184.503"/>
<path fill="#D82927" d="M962.739,176.254c0.386,0.204,0.786,0.354,1.211,0.449c0.792,0.182,4.019,0.563,4.985-0.556
	c0.619-0.711,0.223-3.715-1.241-3.482c-2.673,0.42-4.396,0.039-4.659-0.23c0.126,1.666-0.394,2.668-0.887,3.521
	C962.145,175.963,962.612,176.184,962.739,176.254"/>
<path fill="#D82927" d="M957.996,169.334c0.572-0.079,1.581-0.305,2.729,0.16c0.099-2.645-0.454-5.2-0.517-5.475
	c-0.256-1.189-3.354-2.36-3.146-1.479C957.405,163.983,958.031,168.138,957.996,169.334"/>
<path fill="#D82927" d="M942.134,169.109c-0.159,2.86-0.188,4.952,2.461,4.243c0,0,0.033-2.161,0.041-2.197l0.002-0.017
	c0.137-0.958,0.138-7.929-0.737-9.256c-0.538-0.813-2.681-0.125-2.414,0.825C941.866,164.088,942.225,167.465,942.134,169.109"/>
<path fill="#D82927" d="M929.985,176.592c0.813,0.503,8.63,0.121,9.491-0.155c-0.255-1.263,0.001-2.507,0.363-3.521
	c-1.489,0.384-8.372,0.604-8.868,0.563C929.573,173.365,928.985,175.978,929.985,176.592"/>
<path fill="#D82927" d="M952.99,190.158c-0.181,0.061-0.468,0.126-0.631,0.215c-0.048,0.024-0.093,0.063-0.138,0.097
	c0.104,0.366,0.423,0.796,0.699,1.076C952.907,191.312,953.003,190.37,952.99,190.158"/>
<path fill="#D82927" d="M944.156,186.707c0.005,0,0.012-0.002,0.02-0.002h-0.019C944.156,186.707,944.156,186.707,944.156,186.707"
	/>
<path fill="#D82927" d="M944.578,187.325c-0.146-0.679-0.601-1.156-1.136-1.363c-0.139,0.216-0.276,0.434-0.41,0.648
	c-0.104,0.168-0.221,0.32-0.271,0.486C942.764,187.098,943.287,187.541,944.578,187.325"/>
<path fill="#D82927" d="M957.823,185.99c-1.119-1.323-3.552-1.031-5.043-0.572c-1,0.309-1.999,0.629-3.004,0.939
	c-0.803,0.248-6.431,3.146-7.729,1.831c-0.646,0.835-0.371,1.781-0.259,2.2c1.475,5.257,14.89-6.966,15.562,0.055
	C957.762,190.068,958.656,186.976,957.823,185.99"/>
<path fill="#D82927" d="M940.651,178.319c0.254,0.979,0.142,2.223-0.108,3.165c-0.188,0.73-0.431,1.448-0.694,2.14
	c-0.681,1.732-2.089,3.147-2.634,4.439c-0.494,1.177-0.717,3.044,0.448,3.86c0.736,0.517,2.118,0.632,2.953,0.396
	c0.313-0.088,0.651-0.2,0.92-0.409c0,0,0.007-0.008,0.011-0.01c-0.166-0.104-0.313-0.257-0.439-0.431
	c-0.301-0.411-0.465-0.896-0.537-1.392c-0.127-0.563-0.058-1.356,0.235-1.896c1.801-3.309,2.618-5.305,2.938-7.231
	c0.129-0.803-0.021-1.218,0.103-2.029C942.486,179.132,941.275,178.838,940.651,178.319"/>
<path fill="#D82927" d="M935.962,186.568c-0.387-0.204-0.784-0.354-1.212-0.448c-0.791-0.183-4.014-0.563-4.982,0.553
	c-0.618,0.713-0.224,3.718,1.241,3.483c2.674-0.419,4.396-0.037,4.658,0.232c-0.128-1.667,0.396-2.669,0.888-3.522
	C936.558,186.858,936.093,186.637,935.962,186.568"/>
<path fill="#D82927" d="M940.698,193.488c-0.569,0.079-1.578,0.305-2.724-0.158c-0.104,2.644,0.453,5.198,0.514,5.475
	c0.254,1.189,3.354,2.361,3.146,1.479C941.298,198.839,940.666,194.684,940.698,193.488"/>
<path fill="#D82927" d="M956.57,193.713c0.158-2.859,0.188-4.95-2.462-4.242c0,0-0.033,2.16-0.041,2.195l-0.001,0.018
	c-0.138,0.959-0.139,7.929,0.736,9.255c0.539,0.813,2.68,0.126,2.414-0.824C956.828,198.733,956.479,195.357,956.57,193.713"/>
<path fill="#D82927" d="M968.718,186.23c-0.814-0.503-8.629-0.122-9.49,0.156c0.253,1.264-0.003,2.507-0.365,3.522
	c1.491-0.388,8.373-0.605,8.87-0.564C969.125,189.455,969.717,186.844,968.718,186.23"/>
<path fill="#DE1D3B" d="M1135.934,728.808c0,0.418-0.289,0.758-0.644,0.758h-107.396c-0.354,0-0.642-0.34-0.642-0.758v-63.777
	c0-0.416,0.287-0.756,0.642-0.756h107.396c0.354,0,0.644,0.34,0.644,0.756V728.808z"/>
<text transform="matrix(1 0 0 1 1056.0076 700.405)" fill="#FFFFFF" font-family="'Montserrat-Regular'" font-size="12.1574">Privados</text>
<path fill="#82C3D2" d="M983.169,730.062c0,0.416-0.289,0.756-0.646,0.756H875.13c-0.354,0-0.646-0.34-0.646-0.756v-63.779
	c0-0.418,0.287-0.756,0.646-0.756h107.396c0.354,0,0.646,0.34,0.646,0.756L983.169,730.062L983.169,730.062z"/>
<text transform="matrix(1 0 0 1 903.2419 701.657)" fill="#FFFFFF" font-family="'Montserrat-Regular'" font-size="12.1574">Público</text>
<text transform="matrix(1 0 0 1 1196.405 460.3796)" fill="#FFFFFF" font-family="'Montserrat-Regular'" font-size="12.1574">Rede Social</text>
<text transform="matrix(1 0 0 1 164.1458 -66.4094)" font-family="'SourceSansPro-Bold'" font-size="24.755">MAPA DAS FERRAMENTAS</text>
<text transform="matrix(1 0 0 1 196.1663 -36.7043)" font-family="'SourceSansPro-Bold'" font-size="24.755">Nossa Interferência</text>
<text transform="matrix(1 0 0 1 924.9734 102.0066)" font-family="'SourceSansPro-Bold'" font-size="24.755">Nosso Pensamento</text>
<text transform="matrix(1 0 0 1 896.4412 64.906)" font-family="'SourceSansPro-Bold'" font-size="24.755">MAPA DA COMPREENSÃO</text>
<path fill="#82C3D2" d="M170.453,549.154c0,0.416-0.288,0.756-0.643,0.756H62.414c-0.354,0-0.643-0.34-0.643-0.756v-63.779
	c0-0.418,0.288-0.758,0.643-0.758H169.81c0.354,0,0.643,0.34,0.643,0.758V549.154z"/>
<text transform="matrix(1 0 0 1 78.1072 519.9187)" fill="#FFFFFF" font-family="'Montserrat-Regular'" font-size="12.1574">Bota Pressão</text>
<image overflow="visible" enable-background="new    " width="166" height="54" xlink:href="logos/voto-legal-logo.png"  transform="matrix(0.384 0 0 0.384 50.5208 406.321)">
</image>
<circle fill="#4CCCAE" cx="229.978" cy="87.197" r="19.043"/>
<text transform="matrix(1 0 0 1 222.47 89.4734)" fill="#FFFFFF" font-family="'SourceSansPro-Bold'" font-size="10.1877">API</text>
<text transform="matrix(1 0 0 1 1081.1501 850.0408)" font-family="'SourceSansPro-Bold'" font-size="14.5127">MUNDO QUE QUEREMOS:</text>
<text transform="matrix(1 0 0 1 1081.1501 871.8923)" fill="#231F20" font-family="'SourceSansPro-Regular'" font-size="12.8553">- Colaboração</text>
<text transform="matrix(1 0 0 1 1081.1501 887.3191)" fill="#231F20" font-family="'SourceSansPro-Regular'" font-size="12.8553">- Software Livre</text>
<text transform="matrix(1 0 0 1 1081.1501 902.7449)" fill="#231F20" font-family="'SourceSansPro-Regular'" font-size="12.8553">- Massivo / Descentralizado</text>
<text transform="matrix(1 0 0 1 1081.1501 918.1716)" fill="#231F20" font-family="'SourceSansPro-Regular'" font-size="12.8553">- Justiça Social</text>
<text transform="matrix(1 0 0 1 1081.1501 933.5984)" fill="#231F20" font-family="'SourceSansPro-Regular'" font-size="12.8553">- Emponderamento</text>
<text transform="matrix(1 0 0 1 154.3777 866.5544)" font-family="'SourceSansPro-Bold'" font-size="12.2222">ESTRUTURA DE MUNDO</text>
<text transform="matrix(1 0 0 1 179.6086 881.2214)" font-family="'SourceSansPro-Bold'" font-size="12.2222">SIMPLIFICADA</text>
<text transform="matrix(1 0 0 1 1080.8103 969.3181)" font-family="'SourceSansPro-Bold'" font-size="14.5127">O QUE NOS INCOMODA:</text>
<text transform="matrix(1 0 0 1 1081.1501 992.0076)" fill="#231F20" font-family="'SourceSansPro-Regular'" font-size="12.8553">- Falta de Ética e Moral na Política (FDP)</text>
<text transform="matrix(1 0 0 1 1081.1501 1007.4343)" fill="#231F20" font-family="'SourceSansPro-Regular'" font-size="12.8553">- Estrutura de Gestão Atual</text>
<text transform="matrix(1 0 0 1 1081.1501 1022.8601)" fill="#231F20" font-family="'SourceSansPro-Regular'" font-size="12.8553">- Desqualificação da Relação de Poder</text>
<path fill="#EEE822" d="M1095.631,314.66c0,0.469-0.392,0.847-0.861,0.847H950.573c-0.477,0-0.858-0.378-0.858-0.847v-71.533
	c0-0.468,0.387-0.849,0.858-0.849h144.194c0.477,0,0.859,0.381,0.859,0.849L1095.631,314.66L1095.631,314.66z"/>
<text transform="matrix(1 0 0 1 981.6951 270.2761)" fill="#FFFFFF" font-family="'Montserrat-Regular'" font-size="12.1574">Autenticação</text>
<text transform="matrix(1 0 0 1 958.1648 284.864)" fill="#FFFFFF" font-family="'Montserrat-Regular'" font-size="12.1574">Livre e Criptografada</text>
<image overflow="visible" enable-background="new    " width="400" height="386" xlink:href="../delibera-id/logo-delibera-site-app.png"  transform="matrix(0.207 0 0 0.207 393.2302 529.656)">
</image>
<path fill="#CE71AD" d="M1239.01,606.052c0,0.417-0.364,0.755-0.813,0.755h-136.03c-0.447,0-0.813-0.338-0.813-0.755v-63.78
	c0-0.418,0.364-0.755,0.813-0.755h136.03c0.448,0,0.813,0.339,0.813,0.755V606.052z"/>
<text transform="matrix(1 0 0 1 1149.9187 566.3708)" fill="#FFFFFF" font-family="'Montserrat-Regular'" font-size="12.1574">Dados</text>
<text transform="matrix(1 0 0 1 1128.4246 580.9607)" fill="#FFFFFF" font-family="'Montserrat-Regular'" font-size="12.1574">Institucionais</text>
<text transform="matrix(1 0 0 1 1171.0916 320.2488)" fill="#FFFFFF" font-family="'Montserrat-Regular'" font-size="12.1574">Propagação</text>
<path fill="#4CCCAE" d="M923.541,580.38c0,0.418-0.288,0.755-0.646,0.755H815.505c-0.354,0-0.646-0.339-0.646-0.755v-63.781
	c0-0.416,0.288-0.754,0.646-0.754H922.9c0.354,0,0.646,0.338,0.646,0.754L923.541,580.38L923.541,580.38z"/>
<text transform="matrix(1 0 0 1 831.6482 547.9626)" fill="#FFFFFF" font-family="'Montserrat-Regular'" font-size="12.1574">Deliberação</text>
<text transform="matrix(1 0 0 1 964.4695 304.5916)" fill="#FFFFFF" font-family="'Montserrat-Regular'" font-size="9.4527">Privacidade e Segurança</text>
<image overflow="visible" enable-background="new    " width="301" height="358" xlink:href="logos/jaiminho-logo.png"  transform="matrix(0.1792 0 0 0.1792 520.9832 355.0662)">
</image>
<text transform="matrix(1 0 0 1 552.28 838.2517)" font-family="'SourceSansPro-Bold'" font-size="8.8264">POSICIONAMENTO</text>
<text transform="matrix(1 0 0 1 559.5925 848.8435)" font-family="'SourceSansPro-Bold'" font-size="8.8264">DA REDE LIVRE</text>
<path fill="#FFFFFF" d="M584.74,963.369c-7.98,7.875-13.646,18.248-15.638,30.156c-0.45,2.689-0.696,5.369-0.75,8.021
	c2.497,0.795,5.08,1.424,7.74,1.866c8.65,1.443,17.177,0.789,25.042-1.592C600.942,987.08,594.823,973.349,584.74,963.369z"/>
<text transform="matrix(1 0 0 1 608.2625 1085.4861)" fill="#A7A9AC" font-family="'SourceSansPro-Bold'" font-size="9.7785">DESORGANIZADOS</text>
<text transform="matrix(1 0 0 1 608.2625 1095.0857)" fill="#A7A9AC" font-family="'SourceSansPro-Bold'" font-size="8">(ARTISTAS E HACKERS)</text>
<path fill="#DE1D3B" d="M294.151,596.094c0,0.416-0.28,0.754-0.625,0.754H188.763c-0.344,0-0.625-0.338-0.625-0.754v-63.779
	c0-0.422,0.28-0.76,0.625-0.76h104.763c0.347,0,0.625,0.342,0.625,0.76V596.094L294.151,596.094z"/>
<text transform="matrix(1 0 0 1 205.0427 567.2224)" fill="#FFFFFF" font-family="'Montserrat-Regular'" font-size="12.1574">Change.org</text>
<image overflow="visible" enable-background="new    " width="500" height="254" xlink:href="logos/logo-branca-08-e1458884337204.png"  transform="matrix(0.149 0 0 0.149 64.2087 284.3713)">
</image>
<circle fill="#CE71AD" cx="146.805" cy="236.916" r="19.043"/>
<text transform="matrix(1 0 0 1 139.2971 239.1921)" fill="#FFFFFF" font-family="'SourceSansPro-Bold'" font-size="10.1877">API</text>
<circle fill="#CE71AD" cx="137.45" cy="386.54" r="19.043"/>
<text transform="matrix(1 0 0 1 129.9421 388.8142)" fill="#FFFFFF" font-family="'SourceSansPro-Bold'" font-size="10.1877">API</text>
<text transform="matrix(1 0 0 1 896.0085 852.3416)" fill="#231F20" font-family="'SourceSansPro-Regular'" font-size="15.5969">- Plataforma</text>
<text transform="matrix(1 0 0 1 896.0085 871.0574)" fill="#231F20" font-family="'SourceSansPro-Regular'" font-size="15.5969">- Serviço</text>
<text transform="matrix(1 0 0 1 896.0085 889.7742)" fill="#231F20" font-family="'SourceSansPro-Regular'" font-size="15.5969">- Aplicativo</text>
<text transform="matrix(1 0 0 1 896.0085 908.491)" fill="#231F20" font-family="'SourceSansPro-Regular'" font-size="15.5969">- Software</text>
<text transform="matrix(1 0 0 1 896.0085 927.2078)" fill="#231F20" font-family="'SourceSansPro-Regular'" font-size="15.5969">- Site</text>
<text transform="matrix(1 0 0 1 896.0085 945.9236)" fill="#231F20" font-family="'SourceSansPro-Regular'" font-size="15.5969">- Página</text>
<text transform="matrix(1 0 0 1 896.0085 964.6394)" fill="#231F20" font-family="'SourceSansPro-Regular'" font-size="15.5969">- Blog</text>
<text transform="matrix(1 0 0 1 896.0085 983.3562)" fill="#231F20" font-family="'SourceSansPro-Regular'" font-size="15.5969">- Portal</text>
<text transform="matrix(1 0 0 1 896.0085 1002.072)" fill="#231F20" font-family="'SourceSansPro-Regular'" font-size="15.5969">- Rede</text>
<image overflow="visible" enable-background="new    " width="204" height="194" xlink:href="logos/fde__logo_puro.png"  transform="matrix(0.1072 0 0 0.1072 574.1277 979.4167)">
</image>
<text transform="matrix(1 0 0 1 1002.6472 1100.282)" font-family="'MyriadPro-Regular'" font-size="18.4017">http://logincidadao.org.br/sobre/rede/</text>
<line fill="none" stroke="#58595B" stroke-width="0.414" stroke-miterlimit="10" x1="-825.102" y1="387.852" x2="-829.186" y2="645.78"/>
<line fill="none" stroke="#58595B" stroke-width="0.414" stroke-miterlimit="10" x1="-820.568" y1="389.5" x2="-654.15" y2="559.229"/>
<line fill="none" stroke="#58595B" stroke-width="0.414" stroke-miterlimit="10" x1="-821.809" y1="379.15" x2="-641.731" y2="471.468"/>
<path fill="#4CCCAE" d="M-587.553,503.826c0,0.477-0.252,0.854-0.563,0.854h-94.524c-0.313,0-0.563-0.383-0.563-0.854v-72.38
	c0-0.477,0.253-0.854,0.563-0.854h94.524c0.312,0,0.563,0.383,0.563,0.854V503.826L-587.553,503.826z"/>
<line fill="none" stroke="#58595B" stroke-width="0.414" stroke-miterlimit="10" x1="-818.085" y1="394.468" x2="-746.881" y2="599.799"/>
<polyline fill="none" stroke="#58595B" stroke-width="0.414" stroke-miterlimit="10" points="-617.72,373.769 -821.261,378.753 
	-836.164,238.83 "/>
<line fill="none" stroke="#58595B" stroke-width="0.414" stroke-miterlimit="10" x1="-827.885" y1="388.69" x2="-1011.69" y2="396.969"/>
<line fill="none" stroke="#58595B" stroke-width="0.414" stroke-miterlimit="10" x1="-985.196" y1="493.012" x2="-827.057" y2="394.485"/>
<line fill="none" stroke="#58595B" stroke-width="0.414" stroke-miterlimit="10" x1="-819.605" y1="408.561" x2="-909.158" y2="574.962"/>
<line fill="none" stroke="#58595B" stroke-width="0.414" stroke-miterlimit="10" x1="-974.433" y1="304.238" x2="-822.091" y2="386.204"/>
<line fill="none" stroke="#58595B" stroke-width="0.414" stroke-miterlimit="10" x1="-814.639" y1="370.475" x2="-673.058" y2="253.734"/>
<path fill="#4CCCAE" d="M-927.349,340.299c0,0.417-0.287,0.756-0.643,0.756h-107.396c-0.354,0-0.643-0.339-0.643-0.756v-63.779
	c0-0.418,0.287-0.755,0.643-0.755h107.396c0.354,0,0.643,0.339,0.643,0.755V340.299L-927.349,340.299z"/>
<path fill="#4873B9" d="M-552.038,408.363c0,0.565-0.437,1.025-0.967,1.025h-144.544c-0.532,0-0.968-0.459-0.968-1.025V334.54
	c0-0.565,0.436-1.023,0.968-1.023h144.543c0.53,0,0.967,0.458,0.967,1.023L-552.038,408.363L-552.038,408.363z"/>
<path fill="#7AC143" d="M-825.094,430.769c-4.986-2.947-34.012-19.685-34.68-20.021c-0.744-0.375-0.842-0.669-0.979-1.942
	c0.001-7.112,0.008-39.376,0-39.942c-0.01-0.639,0.3-1.245,0.832-1.506c0.529-0.26,34.775-20.078,34.775-20.078
	c0.896-0.567,1.332-0.557,2.166,0.026c0.003,0.092,34.856,20.123,34.841,20.113c0.533,0.341,0.731,0.599,0.728,1.296
	c0.063,0.036,0,41.466,0,41.466l-35.854,20.704C-823.906,431.302-824.201,431.302-825.094,430.769z"/>
<g enable-background="new    ">
	<path fill="#FFFFFF" d="M-839.451,379.024h3.104v13.901h-3.104V379.024z"/>
	<path fill="#FFFFFF" d="M-822.309,380.842c1.326,1.215,1.989,2.901,1.989,5.063s-0.646,3.871-1.938,5.131
		c-1.296,1.262-3.268,1.893-5.916,1.893h-4.756v-13.902h4.912C-825.536,379.024-823.635,379.631-822.309,380.842z M-824.586,389.108
		c0.764-0.717,1.144-1.757,1.144-3.123s-0.38-2.417-1.144-3.153c-0.766-0.733-1.937-1.104-3.513-1.104h-1.729v8.452h1.97
		C-826.438,390.179-825.348,389.822-824.586,389.108z"/>
</g>
<path fill="#82C3D2" d="M-583.435,295.216c0,0.467-0.427,0.845-0.957,0.845h-143.386c-0.529,0-0.958-0.378-0.958-0.845v-60.833
	c0-0.465,0.429-0.843,0.958-0.843h143.388c0.528,0,0.958,0.378,0.958,0.843L-583.435,295.216L-583.435,295.216z"/>
<image overflow="visible" enable-background="new    " width="757" height="133" xlink:href="logos/culturadigital_logo.png"  transform="matrix(0.1369 0 0 0.1369 -710.0676 253.6487)">
</image>
<image overflow="visible" enable-background="new    " width="362" height="121" xlink:href="logos/toque_no_brasil.png"  transform="matrix(0.207 0 0 0.207 -666.429 355.574)">
</image>
<path fill="#58595B" d="M-784.637,259.24c0,0.476-0.359,0.858-0.81,0.858h-121.189c-0.443,0-0.809-0.385-0.809-0.858v-61.896
	c0-0.475,0.36-0.858,0.809-0.858h121.189c0.446,0,0.81,0.386,0.81,0.858V259.24z"/>
<image overflow="visible" enable-background="new    " width="221" height="77" xlink:href="logos/logo_teste2.png"  transform="matrix(0.3204 0 0 0.3204 -881.4417 215.9592)">
</image>
<text transform="matrix(1 0 0 1 -1001.9602 304.7585)" fill="#FFFFFF" font-family="'Montserrat-Regular'" font-size="12.1574">Mapas</text>
<text transform="matrix(1 0 0 1 -1008.9436 319.3474)" fill="#FFFFFF" font-family="'Montserrat-Regular'" font-size="12.1574">Culturais</text>
<path fill="#CE71AD" d="M-965.645,429.511c0,0.418-0.288,0.754-0.642,0.754h-107.396c-0.354,0-0.642-0.338-0.642-0.754V365.73
	c0-0.418,0.287-0.756,0.642-0.756h107.396c0.354,0,0.642,0.34,0.642,0.756L-965.645,429.511L-965.645,429.511z"/>
<path fill="#EEE822" d="M-926.723,519.966c0,0.418-0.288,0.754-0.643,0.754h-107.396c-0.354,0-0.641-0.338-0.641-0.754v-63.778
	c0-0.419,0.286-0.757,0.641-0.757h107.396c0.354,0,0.643,0.338,0.643,0.757V519.966L-926.723,519.966z"/>
<path fill="#82C3D2" d="M-884.771,622.435c0,0.416-0.288,0.757-0.643,0.757H-992.81c-0.354,0-0.643-0.341-0.643-0.757v-63.778
	c0-0.418,0.288-0.757,0.643-0.757h107.396c0.354,0,0.643,0.339,0.643,0.757V622.435L-884.771,622.435z"/>
<text transform="matrix(1 0 0 1 -977.1165 593.2009)" fill="#FFFFFF" font-family="'Montserrat-Regular'" font-size="12.1574">Bota Pressão</text>
<image overflow="visible" enable-background="new    " width="166" height="54" xlink:href="logos/voto-legal-logo.png"  transform="matrix(0.384 0 0 0.384 -1013.4758 475.5203)">
</image>
<circle fill="#4CCCAE" cx="-832.375" cy="265.235" r="19.043"/>
<text transform="matrix(1 0 0 1 -839.8831 267.5115)" fill="#FFFFFF" font-family="'SourceSansPro-Bold'" font-size="10.1877">API</text>
<text transform="matrix(1 0 0 1 -839.8079 404.2937)" fill="#FFFFFF" font-family="'Montserrat-Regular'" font-size="6.2096">( AGORA )</text>
<image overflow="visible" enable-background="new    " width="400" height="386" xlink:href="../delibera-id/logo-delibera-site-app.png"  transform="matrix(0.207 0 0 0.207 -787.4534 565.8513)">
</image>
<image overflow="visible" enable-background="new    " width="360" height="256" xlink:href="logos/Divi-Theme-for-WordPress.jpg"  transform="matrix(0.207 0 0 0.207 -689.7551 528.5955)">
</image>
<image overflow="visible" enable-background="new    " width="301" height="358" xlink:href="logos/jaiminho-logo.png"  transform="matrix(0.1792 0 0 0.1792 -662.3479 442.4919)">
</image>
<g>
	<path fill="#FFFFFF" d="M-813.705,385.343c0.893,0,1.67,0.35,2.335,1.045c0.665,0.696,0.997,1.592,0.997,2.686
		c0,1.095-0.342,2.011-1.023,2.744c-0.684,0.739-1.459,1.107-2.329,1.107s-1.592-0.36-2.166-1.08v0.97h-2.049v-10.136h2.049v3.604
		C-815.326,385.656-814.599,385.343-813.705,385.343z M-815.92,389.147c0,0.598,0.166,1.084,0.499,1.462
		c0.331,0.378,0.731,0.566,1.208,0.566c0.476,0,0.89-0.188,1.24-0.566c0.354-0.378,0.533-0.861,0.533-1.455
		c0-0.592-0.172-1.088-0.521-1.488c-0.35-0.398-0.765-0.603-1.243-0.603c-0.482,0-0.892,0.198-1.223,0.596
		C-815.754,388.054-815.92,388.551-815.92,389.147z"/>
	<path fill="#FFFFFF" d="M-804.977,387.269c-0.607,0-1.063,0.217-1.362,0.646c-0.304,0.434-0.45,1.006-0.45,1.715v3.184h-2.053
		v-7.35h2.053v0.971c0.265-0.3,0.594-0.558,0.985-0.766c0.396-0.21,0.802-0.318,1.209-0.328l0.018,1.927L-804.977,387.269
		L-804.977,387.269z"/>
</g>
<path fill="#DE1D3B" d="M-800.114,671.49c0,0.416-0.167,0.754-0.372,0.754h-62.396c-0.205,0-0.372-0.338-0.372-0.754v-63.78
	c0-0.419,0.167-0.757,0.372-0.757h62.396c0.206,0,0.372,0.339,0.372,0.757V671.49L-800.114,671.49z"/>
<text transform="matrix(1 0 0 1 -846.9231 642.2585)" fill="#FFFFFF" font-family="'Montserrat-Regular'" font-size="12.1574">Ping</text>
<image overflow="visible" enable-background="new    " width="500" height="254" xlink:href="logos/logo-branca-08-e1458884337204.png"  transform="matrix(0.149 0 0 0.149 -1057.3616 377.0828)">
</image>
<circle fill="#CE71AD" cx="-926.546" cy="330.716" r="19.043"/>
<text transform="matrix(1 0 0 1 -934.054 332.9929)" fill="#FFFFFF" font-family="'SourceSansPro-Bold'" font-size="10.1877">API</text>
<circle fill="#CE71AD" cx="-926.546" cy="455.738" r="19.043"/>
<text transform="matrix(1 0 0 1 -934.054 458.0134)" fill="#FFFFFF" font-family="'SourceSansPro-Bold'" font-size="10.1877">API</text>
<line fill="none" stroke="#58595B" stroke-width="0.6064" stroke-miterlimit="10" x1="2207.11" y1="548.374" x2="2641.315" y2="805.301"/>
<path fill="none" stroke="#58595B" stroke-width="0.6749" stroke-miterlimit="10" d="M2206.752,755.417
	c-24.209-14.321-165.056-95.526-168.295-97.152c-3.605-1.823-4.08-3.246-4.746-9.435c0.011-34.502,0.033-191.064,0-193.806
	c-0.037-3.104,1.455-6.04,4.037-7.309c2.572-1.265,168.739-97.427,168.739-97.427c4.353-2.754,6.461-2.707,10.515,0.116
	c0.012,0.449,169.133,97.641,169.059,97.606c2.582,1.648,3.551,2.91,3.529,6.289c0.303,0.175,0,201.21,0,201.21l-173.984,100.45
	C2212.5,757.984,2211.073,757.984,2206.752,755.417z"/>
<polyline fill="none" stroke="#58595B" stroke-width="0.6064" stroke-miterlimit="10" points="2071.235,1028.193 1964.615,1182.667 
	1828.928,1036.177 "/>
<line fill="none" stroke="#58595B" stroke-width="0.6064" stroke-miterlimit="10" x1="2206.68" y1="569.483" x2="2430.636" y2="928.626"/>
<polyline fill="none" stroke="#58595B" stroke-width="0.6064" stroke-miterlimit="10" points="2432.099,155.877 2206.359,530.536 
	2633.02,317.795 "/>
<line fill="none" stroke="#58595B" stroke-width="0.6064" stroke-miterlimit="10" x1="2234.733" y1="515.171" x2="2526.651" y2="242.154"/>
<polyline fill="none" stroke="#58595B" stroke-width="0.6064" stroke-miterlimit="10" points="2234.711,113.344 2224.573,531.574 
	2048.455,206.941 "/>
<line fill="none" stroke="#58595B" stroke-width="0.6064" stroke-miterlimit="10" x1="2208.302" y1="560.41" x2="2621.195" y2="547.094"/>
<polyline fill="none" stroke="#58595B" stroke-width="0.6064" stroke-miterlimit="10" points="1835.213,1021.929 1941.83,867.453 
	2077.519,1013.943 "/>
<line fill="none" stroke="#58595B" stroke-width="0.6064" stroke-miterlimit="10" x1="2221.707" y1="547.622" x2="1907.334" y2="731.469"/>
<polyline fill="none" stroke="#58595B" stroke-width="0.6064" stroke-miterlimit="10" points="2596.375,655.827 2215.146,543.385 
	1951.091,341.455 "/>
<line fill="none" stroke="#58595B" stroke-width="0.6064" stroke-miterlimit="10" x1="2207.155" y1="556.112" x2="1867.152" y2="613.279"/>
<line fill="none" stroke="#58595B" stroke-width="0.6064" stroke-miterlimit="10" x1="2208.865" y1="560.456" x2="1968.785" y2="870.927"/>
<line fill="none" stroke="#58595B" stroke-width="0.6064" stroke-miterlimit="10" x1="1910.905" y1="463.188" x2="2213.933" y2="554.299"/>
<line fill="none" stroke="#58595B" stroke-width="0.6064" stroke-miterlimit="10" x1="2209.931" y1="562.466" x2="2679.101" y2="418.27"/>
<path fill="#808285" d="M1970.942,504.658c0,0.482-0.391,0.872-0.878,0.872h-146.923c-0.484,0-0.877-0.393-0.877-0.872v-73.689
	c0-0.481,0.393-0.872,0.877-0.872h146.921c0.483,0,0.877,0.391,0.877,0.872L1970.942,504.658L1970.942,504.658z"/>
<path fill="#808285" d="M2776.041,699.347c0,0.612-0.543,1.115-1.209,1.115h-180.902c-0.666,0-1.206-0.503-1.206-1.115v-80.528
	c0-0.617,0.54-1.115,1.206-1.115h180.906c0.664,0,1.207,0.498,1.207,1.115L2776.041,699.347L2776.041,699.347z"/>
<path fill="#808285" d="M2884.508,466.729c0,0.644-0.853,1.164-1.896,1.164h-283.979c-1.041,0-1.895-0.521-1.895-1.164v-83.946
	c0-0.645,0.854-1.166,1.895-1.166h283.979c1.044,0,1.896,0.524,1.896,1.166V466.729L2884.508,466.729z"/>
<text transform="matrix(1 0 0 1 2712.8904 438.2058)" fill="#FFFFFF" font-family="'Montserrat-Regular'" font-size="10.3469">Site / Blog</text>
<text transform="matrix(1 0 0 1 1849.99 464.3474)" fill="#FFFFFF" font-family="'Montserrat-Regular'" font-size="17.8086">Gestão de</text>
<text transform="matrix(1 0 0 1 1858.0125 485.7185)" fill="#FFFFFF" font-family="'Montserrat-Regular'" font-size="17.8086">Projetos</text>
<path fill="#808285" d="M1939.358,640.658c0,0.581-0.524,1.05-1.175,1.05h-196.712c-0.648,0-1.174-0.473-1.174-1.05v-88.567
	c0-0.58,0.523-1.049,1.174-1.049h196.712c0.65,0,1.176,0.469,1.176,1.049L1939.358,640.658L1939.358,640.658z"/>
<text transform="matrix(1 0 0 1 1820.9978 593.2654)" fill="#FFFFFF" font-family="'Montserrat-Regular'" font-size="17.8086">Geo</text>
<text transform="matrix(1 0 0 1 1760.7244 614.6375)" fill="#FFFFFF" font-family="'Montserrat-Regular'" font-size="17.8086">Referenciamento</text>
<path fill="#808285" d="M2047.199,922.806c0,0.613-0.424,1.104-0.942,1.104h-157.313c-0.521,0-0.941-0.496-0.941-1.104v-93.426
	c0-0.609,0.418-1.104,0.941-1.104h157.317c0.519,0,0.942,0.494,0.942,1.104L2047.199,922.806L2047.199,922.806z"/>
<text transform="matrix(1 0 0 1 1939.0017 870.7488)" fill="#FFFFFF" font-family="'Montserrat-Regular'" font-size="17.8086">Dados</text>
<text transform="matrix(1 0 0 1 1928.9041 892.1189)" fill="#FFFFFF" font-family="'Montserrat-Regular'" font-size="17.8086">Pessoais</text>
<path fill="#808285" d="M2148.726,1067.361c0,0.609-0.425,1.105-0.941,1.105h-157.318c-0.518,0-0.938-0.496-0.938-1.105v-93.43
	c0-0.607,0.423-1.104,0.938-1.104h157.318c0.519,0,0.941,0.496,0.941,1.104V1067.361z"/>
<text transform="matrix(1 0 0 1 2031.6472 1025.7517)" fill="#FFFFFF" font-family="'Montserrat-Regular'" font-size="17.8086">Privados</text>
<path fill="#808285" d="M1924.948,1069.195c0,0.609-0.424,1.105-0.946,1.105h-157.313c-0.519,0-0.943-0.496-0.943-1.105v-93.428
	c0-0.611,0.421-1.107,0.943-1.107h157.317c0.521,0,0.944,0.498,0.944,1.107v93.428H1924.948z"/>
<text transform="matrix(1 0 0 1 1811.4167 1025.2214)" fill="#FFFFFF" font-family="'Montserrat-Regular'" font-size="17.8086">Público</text>
<text transform="matrix(1 0 0 1 2627.7253 663.9138)" fill="#FFFFFF" font-family="'Montserrat-Regular'" font-size="17.8086">Rede Social</text>
<path fill="#808285" d="M2034.14,387.597c0,0.589-0.571,1.063-1.266,1.063h-211.223c-0.699,0-1.261-0.475-1.261-1.063v-89.775
	c0-0.587,0.564-1.066,1.261-1.066h211.221c0.698,0,1.261,0.479,1.261,1.066L2034.14,387.597L2034.14,387.597z"/>
<path fill="#808285" d="M2048.761,1216.892c0,0.61-0.533,1.104-1.192,1.104h-199.264c-0.655,0-1.189-0.494-1.189-1.104v-93.428
	c0-0.613,0.534-1.105,1.189-1.105h199.264c0.657,0,1.192,0.498,1.192,1.105V1216.892z"/>
<text transform="matrix(1 0 0 1 1918.2595 1165.0701)" fill="#FFFFFF" font-family="'Montserrat-Regular'" font-size="17.8086">Dados</text>
<text transform="matrix(1 0 0 1 1890.7126 1190.3816)" fill="#FFFFFF" font-family="'Montserrat-Regular'" font-size="17.8086">Institucionais</text>
<text transform="matrix(1 0 0 1 2621.0759 414.5154)" fill="#FFFFFF" font-family="'Montserrat-Regular'" font-size="17.8086">Comunicação Institucional</text>
<path fill="#808285" d="M1978.25,775.693c0,0.49-0.424,0.887-0.944,0.887h-157.313c-0.519,0-0.943-0.397-0.943-0.887v-74.957
	c0-0.488,0.422-0.885,0.943-0.885h157.317c0.521,0,0.943,0.396,0.943,0.885L1978.25,775.693L1978.25,775.693z"/>
<text transform="matrix(1 0 0 1 1844.4304 742.1726)" fill="#FFFFFF" font-family="'Montserrat-Regular'" font-size="17.8086">Deliberação</text>
<path fill="#808285" d="M2780.364,585.885c0,0.613-0.544,1.116-1.209,1.116H2598.25c-0.666,0-1.205-0.503-1.205-1.116v-80.527
	c0-0.617,0.539-1.116,1.205-1.116h180.907c0.664,0,1.207,0.499,1.207,1.116V585.885L2780.364,585.885z"/>
<text transform="matrix(1 0 0 1 2633.2283 539.4207)" fill="#FFFFFF" font-family="'Montserrat-Regular'" font-size="17.8086">Mensagens</text>
<text transform="matrix(1 0 0 1 2633.2283 560.7917)" fill="#FFFFFF" font-family="'Montserrat-Regular'" font-size="17.8086">Instantâneas</text>
<path fill="#808285" d="M2113.769,258.506c0,0.614-0.543,1.116-1.209,1.116h-180.904c-0.667,0-1.207-0.501-1.207-1.116v-80.527
	c0-0.617,0.54-1.116,1.207-1.116h180.907c0.665,0,1.206,0.499,1.206,1.116V258.506L2113.769,258.506z"/>
<text transform="matrix(1 0 0 1 1970.2449 212.0427)" fill="#FFFFFF" font-family="'Montserrat-Regular'" font-size="17.8086">Controle de </text>
<text transform="matrix(1 0 0 1 1994.9187 233.4128)" fill="#FFFFFF" font-family="'Montserrat-Regular'" font-size="17.8086">Versão</text>
<path fill="#808285" d="M2330.064,151.356c0,0.614-0.543,1.116-1.208,1.116H2147.95c-0.666,0-1.206-0.502-1.206-1.116V70.828
	c0-0.617,0.54-1.116,1.206-1.116h180.906c0.666,0,1.208,0.499,1.208,1.116V151.356L2330.064,151.356z"/>
<text transform="matrix(1 0 0 1 2183.8357 110.8015)" fill="#FFFFFF" font-family="'Montserrat-Regular'" font-size="17.8086">Monetização</text>
<path fill="#808285" d="M2673.213,268.409c0,0.477-0.604,0.863-1.345,0.863H2470.74c-0.74,0-1.341-0.389-1.341-0.863v-62.334
	c0-0.477,0.601-0.863,1.341-0.863h201.131c0.738,0,1.344,0.387,1.344,0.863L2673.213,268.409L2673.213,268.409z"/>
<text transform="matrix(1 0 0 1 2491.4021 241.1794)" fill="#FFFFFF" font-family="'Montserrat-Regular'" font-size="17.8086">SEO / Otimização</text>
<path fill="#808285" d="M2560.931,176.31c0,0.544-0.549,0.988-1.221,0.988h-182.453c-0.675,0-1.219-0.444-1.219-0.988v-71.382
	c0-0.547,0.544-0.989,1.219-0.989h182.455c0.67,0,1.219,0.442,1.219,0.989V176.31L2560.931,176.31z"/>
<text transform="matrix(1 0 0 1 2405.7898 143.9021)" fill="#FFFFFF" font-family="'Montserrat-Regular'" font-size="17.8086">Acervo Digital</text>
<path fill="#808285" d="M2657.439,362.185c0,0.475-0.422,0.862-0.938,0.862h-140.479c-0.517,0-0.937-0.388-0.937-0.862v-62.334
	c0-0.478,0.42-0.864,0.937-0.864h140.481c0.517,0,0.938,0.387,0.938,0.864L2657.439,362.185L2657.439,362.185z"/>
<text transform="matrix(1 0 0 1 2551.2683 334.1677)" fill="#FFFFFF" font-family="'Montserrat-Regular'" font-size="17.8086">Mailing</text>
<path fill="#808285" d="M2534.613,954.47c0,0.463-0.535,0.844-1.193,0.844h-178.67c-0.656,0-1.19-0.381-1.19-0.844v-60.97
	c0-0.47,0.534-0.847,1.19-0.847h178.672c0.656,0,1.191,0.377,1.191,0.847V954.47L2534.613,954.47z"/>
<text transform="matrix(1 0 0 1 2386.7312 930.1208)" fill="#FFFFFF" font-family="'Montserrat-Regular'" font-size="17.8086">E-commerce</text>
<path fill="#4D4D4F" d="M2208.857,644.521c-10.604-6.272-72.305-41.848-73.725-42.559c-1.58-0.8-1.789-1.424-2.08-4.134
	c0.004-15.113,0.016-83.698,0-84.899c-0.018-1.357,0.639-2.646,1.771-3.201c1.126-0.554,73.919-42.68,73.919-42.68
	c1.905-1.207,2.83-1.187,4.604,0.051c0.008,0.196,74.094,42.772,74.061,42.759c1.131,0.723,1.556,1.274,1.547,2.755
	c0.133,0.076,0,88.145,0,88.145l-76.217,44.003C2211.375,645.646,2210.75,645.646,2208.857,644.521z"/>
<path fill="#BE4E27" d="M2210.257,633.199c-4.658-2.756-31.771-18.389-32.396-18.698c-0.693-0.353-0.785-0.627-0.914-1.816
	c0.002-6.643,0.006-36.776,0-37.306c-0.007-0.597,0.28-1.161,0.777-1.405c0.495-0.242,32.479-18.754,32.479-18.754
	c0.842-0.528,1.246-0.521,2.025,0.022c0.002,0.086,32.557,18.793,32.541,18.788c0.497,0.316,0.684,0.562,0.68,1.211
	c0.06,0.033,0,38.729,0,38.729l-33.488,19.334C2211.363,633.694,2211.09,633.694,2210.257,633.199z"/>
<text transform="matrix(1 0 0 1 2164.0876 526.4988)" fill="#FFFFFF" font-family="'Montserrat-Regular'" font-size="19.48">Presença</text>
<text transform="matrix(1 0 0 1 2154.863 549.8748)" fill="#FFFFFF" font-family="'Montserrat-Regular'" font-size="19.48">na Internet</text>
<text transform="matrix(1 0 0 1 2192.7449 599.2419)" fill="#FFFFFF" font-family="'Montserrat-Regular'" font-size="16.5283">Infra</text>
<path fill="#808285" d="M2154.605,727.088c0,0.344-0.237,0.62-0.529,0.62h-88.255c-0.292,0-0.528-0.276-0.528-0.62v-52.412
	c0-0.343,0.233-0.619,0.528-0.619h88.259c0.291,0,0.526,0.276,0.526,0.619L2154.605,727.088L2154.605,727.088z"/>
<text transform="matrix(1 0 0 1 2101.2029 697.8845)" fill="#FFFFFF" font-family="'Montserrat-Regular'" font-size="9.9909">API</text>
<text transform="matrix(1 0 0 1 2088.1248 709.8738)" fill="#FFFFFF" font-family="'Montserrat-Regular'" font-size="9.9909">de Login</text>
<path fill="#808285" d="M2189.721,404.891c0,0.252-0.212,0.456-0.472,0.456h-78.573c-0.261,0-0.474-0.205-0.474-0.456v-38.475
	c0-0.251,0.209-0.456,0.474-0.456h78.575c0.26,0,0.471,0.204,0.471,0.456L2189.721,404.891L2189.721,404.891z"/>
<text transform="matrix(1 0 0 1 2141.3904 389.7898)" fill="#FFFFFF" font-family="'Montserrat-Regular'" font-size="9.9909">API</text>
<path fill="#808285" d="M2782.461,843.699c0,0.478-0.707,0.863-1.572,0.863h-235.346c-0.865,0-1.568-0.389-1.568-0.863v-62.334
	c0-0.479,0.701-0.862,1.568-0.862h235.35c0.864,0,1.57,0.387,1.57,0.862L2782.461,843.699L2782.461,843.699z"/>
<text transform="matrix(1 0 0 1 2580.1589 815.6814)" fill="#FFFFFF" font-family="'Montserrat-Regular'" font-size="17.8086">Banco de Contatos</text>
<path fill="#808285" d="M2426.52,694.304c0,0.344-0.237,0.621-0.529,0.621h-88.257c-0.291,0-0.529-0.277-0.529-0.621v-52.413
	c0-0.343,0.236-0.619,0.529-0.619h88.259c0.291,0,0.528,0.276,0.528,0.619L2426.52,694.304L2426.52,694.304z"/>
<text transform="matrix(1 0 0 1 2363.9363 665.0994)" fill="#FFFFFF" font-family="'Montserrat-Regular'" font-size="9.9909">API de </text>
<text transform="matrix(1 0 0 1 2354.5837 677.0886)" fill="#FFFFFF" font-family="'Montserrat-Regular'" font-size="9.9909">Integração</text>
<text transform="matrix(1 0 0 1 1870.1443 338.5232)" fill="#FFFFFF" font-family="'Montserrat-Regular'" font-size="17.8086">Arquivos em</text>
<text transform="matrix(1 0 0 1 1894.0154 359.8943)" fill="#FFFFFF" font-family="'Montserrat-Regular'" font-size="17.8086">Nuvem</text>
<path fill="#808285" d="M2098.658,463.121c0,0.344-0.236,0.62-0.529,0.62h-88.256c-0.291,0-0.528-0.277-0.528-0.62v-52.413
	c0-0.343,0.235-0.621,0.528-0.621h88.26c0.291,0,0.526,0.278,0.526,0.621L2098.658,463.121L2098.658,463.121z"/>
<text transform="matrix(1 0 0 1 2036.0759 433.9158)" fill="#FFFFFF" font-family="'Montserrat-Regular'" font-size="9.9909">API de </text>
<text transform="matrix(1 0 0 1 2026.7234 445.905)" fill="#FFFFFF" font-family="'Montserrat-Regular'" font-size="9.9909">Integração</text>
<path fill="#808285" d="M2446.941,575.011c0,0.344-0.238,0.621-0.529,0.621h-88.257c-0.292,0-0.529-0.278-0.529-0.621v-52.413
	c0-0.342,0.235-0.62,0.529-0.62h88.258c0.291,0,0.528,0.278,0.528,0.62V575.011L2446.941,575.011z"/>
<text transform="matrix(1 0 0 1 2384.3572 545.8064)" fill="#FFFFFF" font-family="'Montserrat-Regular'" font-size="9.9909">API de </text>
<text transform="matrix(1 0 0 1 2375.0046 557.7957)" fill="#FFFFFF" font-family="'Montserrat-Regular'" font-size="9.9909">Integração</text>
<path fill="#808285" d="M2080.982,604.246c0,0.253-0.212,0.456-0.471,0.456h-78.573c-0.26,0-0.473-0.205-0.473-0.456v-38.474
	c0-0.252,0.209-0.456,0.473-0.456h78.575c0.258,0,0.47,0.203,0.47,0.456L2080.982,604.246L2080.982,604.246z"/>
<text transform="matrix(1 0 0 1 2032.6501 589.1453)" fill="#FFFFFF" font-family="'Montserrat-Regular'" font-size="9.9909">API</text>
<path fill="#808285" d="M2440.636,469.425c0,0.343-0.238,0.62-0.529,0.62h-88.256c-0.292,0-0.529-0.278-0.529-0.62v-52.413
	c0-0.344,0.235-0.621,0.529-0.621h88.258c0.291,0,0.528,0.277,0.528,0.621L2440.636,469.425L2440.636,469.425z"/>
<text transform="matrix(1 0 0 1 2378.0535 440.2195)" fill="#FFFFFF" font-family="'Montserrat-Regular'" font-size="9.9909">API de </text>
<text transform="matrix(1 0 0 1 2368.7009 452.2087)" fill="#FFFFFF" font-family="'Montserrat-Regular'" font-size="9.9909">Integração</text>
<path fill="#808285" d="M2309.405,930.064c0,0.465-0.534,0.846-1.192,0.846h-178.668c-0.657,0-1.191-0.381-1.191-0.846v-60.971
	c0-0.467,0.534-0.845,1.191-0.845h178.67c0.656,0,1.191,0.378,1.191,0.845L2309.405,930.064L2309.405,930.064z"/>
<text transform="matrix(1 0 0 1 2152.532 904.4304)" fill="#FFFFFF" font-family="'Montserrat-Regular'" font-size="17.8086">E-mail e Listas</text>
<path fill="#FFFFFF" d="M1029.595,443.665c0.18-0.062,0.467-0.125,0.629-0.217c0.048-0.023,0.094-0.062,0.138-0.095
	c-0.104-0.368-0.424-0.797-0.698-1.078C1029.674,442.511,1029.584,443.454,1029.595,443.665"/>
<path fill="#FFFFFF" d="M1038.429,447.117c-0.008,0-0.014,0.004-0.021,0.004h0.021V447.117z"/>
<path fill="#FFFFFF" d="M1038.005,446.499c0.146,0.678,0.602,1.155,1.136,1.362c0.14-0.216,0.275-0.434,0.41-0.648
	c0.104-0.169,0.222-0.319,0.271-0.486C1039.824,446.726,1039.295,446.283,1038.005,446.499"/>
<path fill="#FFFFFF" d="M1024.763,447.835c1.117,1.321,3.551,1.029,5.043,0.57c1.001-0.309,1.998-0.629,3.003-0.938
	c0.804-0.248,6.43-3.146,7.727-1.832c0.646-0.834,0.373-1.78,0.255-2.198c-1.469-5.257-14.884,6.964-15.554-0.055
	C1024.825,443.757,1023.933,446.849,1024.763,447.835"/>
<path fill="#FFFFFF" d="M1041.936,455.505c-0.255-0.979-0.146-2.224,0.106-3.166c0.188-0.731,0.433-1.448,0.698-2.141
	c0.677-1.732,2.088-3.146,2.63-4.438c0.496-1.179,0.717-3.045-0.449-3.862c-0.733-0.517-2.115-0.632-2.949-0.396
	c-0.313,0.087-0.652,0.202-0.922,0.412l-0.01,0.007c0.166,0.104,0.314,0.257,0.44,0.431c0.301,0.412,0.467,0.896,0.538,1.394
	c0.126,0.562,0.059,1.355-0.236,1.895c-1.8,3.307-2.621,5.304-2.938,7.233c-0.135,0.802,0.021,1.217-0.104,2.027
	C1040.103,454.692,1041.313,454.985,1041.936,455.505"/>
<path fill="#FFFFFF" d="M1046.625,447.256c0.385,0.204,0.785,0.353,1.211,0.448c0.792,0.182,4.018,0.563,4.984-0.556
	c0.619-0.711,0.224-3.715-1.24-3.481c-2.674,0.42-4.396,0.038-4.659-0.231c0.126,1.666-0.395,2.668-0.888,3.521
	C1046.031,446.965,1046.497,447.186,1046.625,447.256"/>
<path fill="#FFFFFF" d="M1041.883,440.336c0.571-0.079,1.581-0.306,2.729,0.159c0.1-2.645-0.454-5.199-0.516-5.475
	c-0.256-1.189-3.354-2.36-3.146-1.479C1041.291,434.984,1041.916,439.14,1041.883,440.336"/>
<path fill="#FFFFFF" d="M1026.019,440.11c-0.159,2.86-0.188,4.952,2.461,4.243c0,0,0.033-2.161,0.041-2.197l0.002-0.017
	c0.137-0.958,0.138-7.928-0.737-9.255c-0.538-0.813-2.681-0.125-2.413,0.825C1025.752,435.09,1026.111,438.467,1026.019,440.11"/>
<path fill="#FFFFFF" d="M1013.87,447.594c0.813,0.502,8.63,0.121,9.491-0.156c-0.255-1.262,0.001-2.507,0.363-3.521
	c-1.489,0.385-8.372,0.604-8.868,0.563C1013.459,444.367,1012.87,446.979,1013.87,447.594"/>
<path fill="#FFFFFF" d="M1036.877,461.16c-0.182,0.061-0.469,0.126-0.632,0.216c-0.048,0.023-0.093,0.063-0.138,0.096
	c0.104,0.367,0.423,0.796,0.699,1.077C1036.793,462.313,1036.888,461.372,1036.877,461.16"/>
<path fill="#FFFFFF" d="M1028.041,457.708c0.006,0,0.012-0.002,0.02-0.002h-0.018
	C1028.041,457.708,1028.041,457.708,1028.041,457.708"/>
<path fill="#FFFFFF" d="M1028.465,458.327c-0.146-0.679-0.602-1.155-1.137-1.362c-0.139,0.215-0.275,0.433-0.41,0.647
	c-0.104,0.168-0.221,0.32-0.271,0.486C1026.65,458.1,1027.174,458.542,1028.465,458.327"/>
<path fill="#FFFFFF" d="M1041.709,456.992c-1.119-1.322-3.553-1.03-5.043-0.571c-1,0.308-2,0.629-3.005,0.938
	c-0.803,0.248-6.431,3.146-7.729,1.831c-0.646,0.835-0.371,1.781-0.258,2.2c1.474,5.257,14.889-6.965,15.561,0.055
	C1041.648,461.069,1042.541,457.978,1041.709,456.992"/>
<path fill="#FFFFFF" d="M1024.536,449.32c0.255,0.979,0.142,2.224-0.108,3.165c-0.188,0.731-0.431,1.448-0.694,2.141
	c-0.681,1.731-2.089,3.146-2.634,4.438c-0.494,1.177-0.717,3.044,0.449,3.861c0.735,0.516,2.117,0.631,2.953,0.396
	c0.313-0.088,0.65-0.2,0.92-0.409c0,0,0.006-0.008,0.01-0.01c-0.166-0.104-0.313-0.257-0.439-0.431
	c-0.301-0.411-0.465-0.896-0.537-1.392c-0.127-0.563-0.058-1.356,0.235-1.896c1.801-3.308,2.618-5.304,2.938-7.231
	c0.129-0.803-0.021-1.218,0.102-2.028C1026.371,450.134,1025.16,449.84,1024.536,449.32"/>
<path fill="#FFFFFF" d="M1019.847,457.569c-0.386-0.204-0.784-0.353-1.211-0.448c-0.791-0.183-4.015-0.563-4.983,0.554
	c-0.618,0.712-0.224,3.717,1.241,3.482c2.674-0.419,4.396-0.037,4.658,0.232c-0.127-1.667,0.396-2.669,0.888-3.522
	C1020.444,457.859,1019.978,457.638,1019.847,457.569"/>
<path fill="#FFFFFF" d="M1024.584,464.49c-0.57,0.079-1.578,0.306-2.725-0.158c-0.103,2.644,0.453,5.198,0.514,5.475
	c0.255,1.189,3.354,2.362,3.146,1.479C1025.183,469.841,1024.552,465.686,1024.584,464.49"/>
<path fill="#FFFFFF" d="M1040.455,464.715c0.158-2.86,0.188-4.951-2.462-4.243c0,0-0.032,2.161-0.041,2.195l-0.001,0.018
	c-0.138,0.959-0.139,7.929,0.736,9.255c0.539,0.814,2.68,0.126,2.414-0.824C1040.715,469.734,1040.365,466.358,1040.455,464.715"/>
<path fill="#FFFFFF" d="M1052.603,457.231c-0.814-0.503-8.629-0.122-9.49,0.156c0.253,1.264-0.003,2.507-0.365,3.522
	c1.491-0.388,8.373-0.605,8.87-0.564C1053.011,460.457,1053.602,457.845,1052.603,457.231"/>
<image overflow="visible" width="188" height="188" xlink:href="logos/redelivre-5776152.jpg"  transform="matrix(1 0 0 1 -529.3176 98.325)">
</image>
<g>
	<g>
		<path fill="#808184" d="M513.241,513.093c-8.465,8.265-18.887,12.397-31.263,12.397c-12.378,0-22.799-4.133-31.262-12.397
			c-8.465-8.265-12.696-18.545-12.696-30.842s4.231-22.578,12.696-30.843c8.463-8.265,18.884-12.397,31.262-12.397
			c12.376,0,22.798,4.133,31.263,12.397c8.462,8.265,12.696,18.546,12.696,30.843S521.703,504.828,513.241,513.093z"/>
		<g>
			<circle fill="#FFFFFF" cx="482.069" cy="482.381" r="27.5"/>
			<g>
				<path fill="#20769D" d="M457.889,482.25c0,9.535,5.541,17.774,13.576,21.68l-11.49-31.483
					C458.638,475.442,457.889,478.758,457.889,482.25z"/>
				<path fill="#20769D" d="M498.24,481.035c0-2.978-1.069-5.04-1.986-6.645c-1.222-1.983-2.366-3.664-2.366-5.648
					c0-2.215,1.68-4.275,4.046-4.275c0.106,0,0.207,0.013,0.311,0.019c-4.284-3.926-9.994-6.324-16.266-6.324
					c-8.415,0-15.819,4.318-20.127,10.859c0.565,0.017,1.098,0.028,1.55,0.028c2.521,0,6.42-0.306,6.42-0.306
					c1.299-0.077,1.452,1.83,0.155,1.984c0,0-1.306,0.153-2.758,0.229l8.772,26.092l5.271-15.81l-3.753-10.283
					c-1.298-0.076-2.525-0.229-2.525-0.229c-1.299-0.077-1.146-2.062,0.152-1.984c0,0,3.978,0.306,6.345,0.306
					c2.519,0,6.419-0.306,6.419-0.306c1.3-0.077,1.452,1.831,0.154,1.984c0,0-1.307,0.153-2.756,0.229l8.705,25.895l2.402-8.028
					C497.447,485.489,498.24,483.096,498.24,481.035z"/>
				<path fill="#20769D" d="M482.401,484.357l-7.228,21.001c2.157,0.635,4.439,0.981,6.805,0.981c2.805,0,5.495-0.484,7.999-1.365
					c-0.064-0.104-0.123-0.213-0.172-0.331L482.401,484.357z"/>
				<path fill="#20769D" d="M503.115,470.692c0.103,0.768,0.162,1.592,0.162,2.478c0,2.444-0.457,5.192-1.831,8.629l-7.358,21.273
					c7.161-4.176,11.979-11.935,11.979-20.822C506.066,478.063,504.996,474.124,503.115,470.692z"/>
				<path fill="#20769D" d="M481.978,454.17c-15.483,0-28.08,12.597-28.08,28.08c0,15.484,12.597,28.081,28.08,28.081
					c15.482,0,28.081-12.597,28.081-28.081C510.059,466.766,497.461,454.17,481.978,454.17z M481.978,509.043
					c-14.773,0-26.793-12.02-26.793-26.793s12.019-26.792,26.793-26.792c14.772,0,26.791,12.019,26.791,26.792
					S496.751,509.043,481.978,509.043z"/>
			</g>
		</g>
	</g>
	<circle fill="#D82927" cx="515.916" cy="510.706" r="14.784"/>
	<g>
		<path fill="#FFFFFF" d="M514.365,506.981c0.076-0.025,0.199-0.053,0.269-0.092c0.021-0.011,0.039-0.026,0.059-0.04
			c-0.046-0.157-0.181-0.34-0.298-0.459C514.4,506.49,514.361,506.891,514.365,506.981"/>
		<polygon fill="#FFFFFF" points="518.127,508.451 518.121,508.452 518.127,508.452 		"/>
		<path fill="#FFFFFF" d="M517.948,508.187c0.062,0.288,0.254,0.493,0.481,0.581c0.06-0.092,0.119-0.185,0.176-0.277
			c0.043-0.072,0.094-0.136,0.116-0.207C518.721,508.284,518.497,508.095,517.948,508.187"/>
		<path fill="#FFFFFF" d="M512.307,508.757c0.477,0.563,1.513,0.438,2.148,0.244c0.426-0.133,0.851-0.269,1.279-0.401
			c0.341-0.105,2.737-1.339,3.289-0.779c0.274-0.356,0.159-0.758,0.108-0.937c-0.626-2.238-6.337,2.966-6.623-0.023
			C512.335,507.019,511.955,508.337,512.307,508.757"/>
		<path fill="#FFFFFF" d="M519.621,512.022c-0.108-0.417-0.06-0.945,0.046-1.348c0.081-0.312,0.184-0.617,0.298-0.91
			c0.288-0.739,0.89-1.342,1.12-1.891c0.211-0.502,0.305-1.297-0.191-1.645c-0.314-0.22-0.902-0.27-1.258-0.169
			c-0.132,0.036-0.277,0.086-0.392,0.175l-0.003,0.003c0.07,0.045,0.135,0.11,0.188,0.184c0.128,0.176,0.198,0.382,0.229,0.593
			c0.055,0.239,0.025,0.578-0.101,0.807c-0.766,1.408-1.115,2.259-1.251,3.08c-0.056,0.341,0.01,0.518-0.043,0.863
			C518.84,511.676,519.355,511.802,519.621,512.022"/>
		<path fill="#FFFFFF" d="M521.616,508.51c0.164,0.087,0.336,0.15,0.517,0.191c0.337,0.077,1.708,0.241,2.123-0.235
			c0.263-0.303,0.094-1.582-0.529-1.483c-1.138,0.179-1.873,0.016-1.983-0.099c0.054,0.709-0.168,1.136-0.378,1.498
			C521.364,508.386,521.562,508.48,521.616,508.51"/>
		<path fill="#FFFFFF" d="M519.599,505.563c0.243-0.034,0.672-0.129,1.16,0.067c0.042-1.125-0.193-2.213-0.22-2.33
			c-0.108-0.507-1.428-1.006-1.339-0.63C519.345,503.285,519.613,505.053,519.599,505.563"/>
		<path fill="#FFFFFF" d="M512.843,505.468c-0.068,1.219-0.079,2.108,1.049,1.807c0,0,0.014-0.92,0.017-0.936l0.001-0.007
			c0.058-0.408,0.059-3.376-0.313-3.94c-0.229-0.347-1.142-0.054-1.028,0.351C512.73,503.33,512.882,504.767,512.843,505.468"/>
		<path fill="#FFFFFF" d="M507.67,508.654c0.347,0.213,3.674,0.051,4.041-0.066c-0.107-0.537,0.002-1.068,0.155-1.5
			c-0.634,0.163-3.565,0.257-3.776,0.239C507.496,507.28,507.244,508.392,507.67,508.654"/>
		<path fill="#FFFFFF" d="M517.467,514.43c-0.075,0.025-0.198,0.054-0.268,0.092c-0.021,0.011-0.04,0.026-0.06,0.04
			c0.046,0.157,0.182,0.34,0.298,0.459C517.431,514.921,517.471,514.52,517.467,514.43"/>
		<polyline fill="#FFFFFF" points="513.705,512.96 513.712,512.96 513.706,512.96 513.705,512.96 		"/>
		<path fill="#FFFFFF" d="M513.885,513.224c-0.063-0.289-0.255-0.493-0.482-0.581c-0.06,0.092-0.119,0.185-0.175,0.277
			c-0.044,0.071-0.094,0.136-0.116,0.207C513.111,513.128,513.336,513.316,513.885,513.224"/>
		<path fill="#FFFFFF" d="M519.525,512.656c-0.478-0.564-1.513-0.439-2.148-0.244c-0.425,0.131-0.851,0.267-1.279,0.399
			c-0.342,0.106-2.737,1.341-3.29,0.78c-0.274,0.355-0.158,0.758-0.108,0.937c0.625,2.238,6.338-2.966,6.624,0.023
			C519.498,514.391,519.878,513.075,519.525,512.656"/>
		<path fill="#FFFFFF" d="M512.212,509.389c0.108,0.416,0.06,0.946-0.047,1.347c-0.08,0.313-0.184,0.617-0.297,0.911
			c-0.288,0.739-0.89,1.341-1.12,1.891c-0.212,0.501-0.306,1.297,0.191,1.645c0.313,0.22,0.901,0.269,1.258,0.169
			c0.131-0.038,0.276-0.086,0.392-0.175c0,0,0.002-0.003,0.002-0.004c-0.069-0.044-0.133-0.109-0.188-0.184
			c-0.128-0.176-0.197-0.381-0.229-0.593c-0.054-0.238-0.024-0.577,0.101-0.806c0.767-1.408,1.116-2.259,1.252-3.08
			c0.055-0.341-0.011-0.518,0.042-0.864C512.993,509.735,512.477,509.61,512.212,509.389"/>
		<path fill="#FFFFFF" d="M510.216,512.902c-0.163-0.087-0.335-0.15-0.517-0.191c-0.336-0.078-1.707-0.24-2.122,0.235
			c-0.264,0.303-0.095,1.582,0.529,1.483c1.138-0.179,1.871-0.017,1.983,0.099c-0.054-0.709,0.168-1.137,0.378-1.499
			C510.469,513.025,510.27,512.931,510.216,512.902"/>
		<path fill="#FFFFFF" d="M512.234,515.847c-0.245,0.034-0.673,0.129-1.161-0.067c-0.042,1.125,0.193,2.214,0.22,2.331
			c0.107,0.507,1.428,1.006,1.339,0.63C512.487,518.127,512.219,516.357,512.234,515.847"/>
		<path fill="#FFFFFF" d="M518.99,515.944c0.067-1.219,0.079-2.108-1.048-1.807c0,0-0.015,0.92-0.018,0.935l-0.002,0.008
			c-0.057,0.408-0.058,3.376,0.314,3.94c0.229,0.347,1.142,0.054,1.027-0.351C519.1,518.082,518.95,516.643,518.99,515.944"/>
		<path fill="#FFFFFF" d="M524.162,512.759c-0.347-0.215-3.675-0.053-4.041,0.065c0.108,0.538-0.001,1.067-0.154,1.5
			c0.634-0.164,3.564-0.257,3.776-0.24C524.337,514.132,524.587,513.019,524.162,512.759"/>
	</g>
</g>
<image overflow="visible" width="500" height="500" xlink:href="logos/Avatar-Social_M.png"  transform="matrix(0.1772 0 0 0.1772 250.2024 243.5959)">
</image>
<image overflow="visible" enable-background="new    " width="360" height="256" xlink:href="logos/Divi-Theme-for-WordPress.jpg"  transform="matrix(0.207 0 0 0.207 505.2 538.9734)">
</image>
<g>
	<path fill="#C7D92E" d="M616.079,294.227c0,5.625-4.561,10.184-10.185,10.184H499.318c-5.624,0-10.184-4.559-10.184-10.184v-43.928
		c0-5.624,4.56-10.184,10.184-10.184h106.576c5.624,0,10.185,4.56,10.185,10.184V294.227z"/>
	<g>
		<path fill="#FFFFFF" d="M566.507,263.803h0.383c0.375,0,0.562,0.117,0.562,0.354c0,0.462-0.288,2.133-0.862,5.016
			c-0.577,2.883-0.866,4.771-0.866,5.66c-0.011,0.2-0.018,0.354-0.018,0.467v0.383c0,0.798-0.067,1.33-0.201,1.595
			c-0.135,0.264-0.433,0.397-0.892,0.397h-0.273c-0.255,0-0.417-0.057-0.486-0.169c-0.067-0.112-0.101-0.368-0.101-0.767v-0.3
			c0-0.791,0.183-2.099,0.548-3.922c0.364-1.823,0.639-3.267,0.822-4.331c0.183-1.067,0.31-1.889,0.379-2.464
			c0.069-0.577,0.128-0.966,0.177-1.165C565.799,264.054,566.078,263.803,566.507,263.803"/>
		<path fill="#FFFFFF" d="M571.107,268.074h0.482c0.277,0,0.414,0.092,0.414,0.281v0.188c0,0.361-0.149,1.279-0.445,2.758
			c-0.298,1.477-0.479,2.601-0.542,3.375c-0.065,0.772-0.2,1.517-0.409,2.234c-0.149,0.504-0.498,0.756-1.045,0.756h-0.392
			c-0.294,0-0.439-0.111-0.439-0.336v-0.094c0-0.38,0.1-0.972,0.303-1.776s0.411-1.777,0.629-2.921
			c0.219-1.145,0.328-1.975,0.328-2.491l0.027-0.533c0-0.528,0.082-0.902,0.248-1.117
			C570.435,268.183,570.715,268.074,571.107,268.074 M572.406,264.157l0.281,0.037c0.207,0,0.309,0.105,0.309,0.317v0.178
			l-0.037,0.299c0,0.287-0.138,0.624-0.412,1.01c-0.131,0.182-0.345,0.271-0.644,0.271c-0.124,0.033-0.215,0.046-0.271,0.046
			l-0.188,0.02h-0.149c-0.394,0-0.59-0.119-0.59-0.355v-0.177l0.038-0.3c0-0.341,0.144-0.685,0.427-1.026
			c0.157-0.188,0.416-0.282,0.777-0.282c0.049-0.012,0.087-0.018,0.112-0.018l0.196-0.02L572.406,264.157L572.406,264.157z"/>
		<path fill="#FFFFFF" d="M561.016,268.765c-0.403-0.367-0.927-0.551-1.572-0.551c-0.644,0-1.435,0.19-2.369,0.578
			c-1.423,0.587-2.476,1.618-3.158,3.095c-0.325,0.699-0.486,1.351-0.486,1.954v0.224c0,1.086,0.334,1.952,1.004,2.604
			c0.671,0.652,1.518,0.978,2.543,0.978c1.024,0,1.916-0.162,2.669-0.486c0.754-0.323,1.133-0.676,1.133-1.056
			c0-0.336-0.155-0.506-0.466-0.506c-0.151,0-0.597,0.107-1.339,0.318c-0.74,0.212-1.312,0.318-1.71,0.318
			c-0.692,0-1.225-0.2-1.598-0.6c-0.172-0.182-0.301-0.389-0.395-0.615c-0.012-0.01-0.023-0.035-0.031-0.079
			c0,0-0.001-0.001-0.001-0.004c-0.082-0.231-0.127-0.489-0.134-0.768c-0.143-1.094,0.01-1.835,0.645-2.895l0.022,0.001
			c0.132-0.238,0.365-0.508,0.701-0.807c0.551-0.489,1.065-0.733,1.548-0.733c0.043,0,0.101-0.007,0.178-0.019h0.364
			c0.316,0,0.642,0.09,0.97,0.274c0.331,0.185,0.499,0.457,0.499,0.82v0.185c0,0.269-0.07,0.426-0.209,0.469
			c-0.225,0.074-0.667,0.111-1.328,0.111l-1.364,0.103l-0.122,0.01l-0.297,0.026l-0.233,0.027c-0.115,0-0.267,0.017-0.452,0.045
			c-0.107,0.194-0.446,0.859-0.488,1.607c0.047-0.021,0.1-0.038,0.155-0.053c0.122-0.031,0.929-0.151,2.415-0.359
			c1.486-0.209,2.391-0.403,2.714-0.585c0.529-0.313,0.796-1.007,0.796-2.084C561.619,269.65,561.418,269.132,561.016,268.765"/>
		<path fill="#FFFFFF" d="M597.855,268.765c-0.402-0.367-0.925-0.551-1.569-0.551c-0.646,0-1.437,0.19-2.369,0.578
			c-1.422,0.587-2.475,1.618-3.161,3.095c-0.324,0.699-0.485,1.351-0.485,1.954v0.224c0,1.086,0.336,1.952,1.007,2.604
			c0.669,0.652,1.517,0.978,2.542,0.978c1.024,0,1.915-0.162,2.669-0.486c0.753-0.323,1.132-0.676,1.132-1.056
			c0-0.336-0.155-0.506-0.468-0.506c-0.149,0-0.594,0.107-1.336,0.318c-0.74,0.212-1.311,0.318-1.71,0.318
			c-0.693,0-1.226-0.2-1.6-0.6c-0.171-0.182-0.299-0.389-0.393-0.615c-0.013-0.01-0.022-0.035-0.033-0.079v-0.004
			c-0.083-0.231-0.127-0.489-0.132-0.768c-0.144-1.094,0.007-1.835,0.644-2.895l0.025,0.001c0.132-0.238,0.364-0.508,0.697-0.807
			c0.554-0.489,1.068-0.733,1.549-0.733c0.045,0,0.103-0.008,0.178-0.019h0.363c0.318,0,0.644,0.09,0.973,0.274
			c0.33,0.185,0.495,0.457,0.495,0.82v0.185c0,0.269-0.069,0.426-0.205,0.469c-0.226,0.074-0.669,0.111-1.329,0.111l-1.365,0.103
			l-0.119,0.01l-0.301,0.026l-0.232,0.027c-0.113,0-0.264,0.017-0.451,0.045c-0.107,0.194-0.445,0.858-0.486,1.607
			c0.046-0.021,0.098-0.038,0.153-0.053c0.125-0.031,0.931-0.151,2.417-0.359c1.485-0.209,2.392-0.403,2.716-0.585
			c0.529-0.313,0.795-1.007,0.795-2.084C598.461,269.65,598.258,269.132,597.855,268.765"/>
		<path fill="#FFFFFF" d="M586.039,271.759c0.318-1.026,0.69-1.994,0.69-1.994c0.1-0.307,0.1-0.63,0.067-0.895
			c-0.1-0.354-0.436-0.534-1.014-0.534c-0.363,0-0.625,0.091-0.786,0.271c-0.281,0.313-0.667,1.91-1.16,4.796
			c-0.299,1.732-0.495,2.803-0.589,3.207l-0.206,0.85c0,0.125,0.102,0.188,0.308,0.188c0.754,0,1.234-0.216,1.441-0.646
			c0.048-0.1,0.243-0.991,0.58-2.677c0.226-1.134,0.447-1.985,0.665-2.561C586.038,271.761,586.038,271.761,586.039,271.759"/>
		<path fill="#FFFFFF" d="M588.831,268.112c-0.361,0-0.723,0.137-1.084,0.412c-0.046,0.036-0.3,0.307-0.421,0.432
			c0.034,0.582-0.118,1.089-0.197,1.308c0.056-0.045,0.11-0.087,0.164-0.123c0.304-0.193,0.688-0.289,1.159-0.289
			s0.792-0.093,0.963-0.275c0.173-0.185,0.259-0.482,0.259-0.894C589.673,268.301,589.391,268.112,588.831,268.112"/>
		<path fill="#FFFFFF" d="M552.158,263.923h-0.17c-0.387,0-0.649,0.112-0.793,0.337c-0.144,0.224-0.321,0.904-0.535,2.042
			c-0.21,1.137-0.356,1.798-0.439,1.982c-0.08,0.183-0.273,0.275-0.578,0.275l-1.347-0.065c-1.304,0-2.456,0.641-3.459,1.916
			c-0.531,0.674-0.926,1.377-1.188,2.113c-0.269,0.749-0.401,1.575-0.401,2.487c0,0.897,0.192,1.592,0.579,2.084
			c0.387,0.499,0.898,0.752,1.533,0.758c0-0.007,0.005-0.01,0.01-0.01c0.456,0,0.946-0.175,1.469-0.522
			c0.091-0.072,0.403-0.341,0.67-0.88c0,0,0.197-0.445-0.216-0.652c0,0-0.002,0-0.003-0.002c-0.012,0.011-0.026,0.023-0.036,0.032
			c-0.354,0.278-0.672,0.417-0.958,0.417h-0.215c-0.313,0-0.555-0.149-0.729-0.449c-0.176-0.299-0.263-0.651-0.263-1.055v-0.366
			c0-1.077,0.325-2.174,0.979-3.29c0.3-0.513,0.627-0.88,0.983-1.107c0.354-0.229,0.658-0.342,0.905-0.342h0.226
			c0.306,0,0.536,0.094,0.692,0.286c0.155,0.189,0.232,0.405,0.232,0.647v0.336c0,1.234-0.326,2.506-0.98,3.815
			c-0.138,0.274-0.302,0.515-0.483,0.726c0.173,0.103,0.6,0.441,0.343,1.164v0.001c0.027,0.026,0.055,0.057,0.086,0.101
			c0.073,0.104,0.146,0.19,0.218,0.253c0.072,0.062,0.227,0.093,0.467,0.093c0.241,0,0.463-0.083,0.668-0.247
			c0.206-0.165,0.354-0.41,0.441-0.734c1.86-6.987,2.794-10.885,2.794-11.695C552.662,264.073,552.492,263.923,552.158,263.923"/>
		<path fill="#FFFFFF" d="M577.61,274.64l0.578,1.821c3.022-4.872,4.538-7.547,4.538-8.022c0-0.105-0.135-0.158-0.401-0.158
			c-0.698,0-1.309,0.357-1.833,1.075c-0.174,0.238-0.741,1.271-1.701,3.104C578.266,273.46,577.873,274.186,577.61,274.64"/>
		<path fill="#FFFFFF" d="M577.161,275.114c-0.037-0.104-0.085-0.292-0.143-0.568l-0.001-0.001
			c-0.094-0.454-0.212-1.135-0.356-2.048c-0.276-1.808-0.481-2.867-0.617-3.18c-0.137-0.299-0.323-0.542-0.561-0.729
			c-0.237-0.188-0.55-0.28-0.935-0.28c-0.225,0-0.336,0.09-0.336,0.271c0,0.18,0.12,0.713,0.364,1.599
			c0.244,0.885,0.514,2.169,0.813,3.853c0.299,1.682,0.469,2.604,0.515,2.768c0.131,0.473,0.416,0.71,0.859,0.71h0.188
			c0.292,0,0.575-0.166,0.855-0.493L577.161,275.114z"/>
		<path fill="#FFFFFF" d="M528.567,271.759c0.317-1.026,0.691-1.994,0.691-1.994c0.099-0.307,0.096-0.63,0.064-0.895
			c-0.1-0.354-0.438-0.534-1.015-0.534c-0.361,0-0.622,0.091-0.786,0.271c-0.28,0.313-0.667,1.91-1.159,4.796
			c-0.3,1.732-0.494,2.803-0.59,3.207l-0.207,0.85c0,0.125,0.104,0.188,0.309,0.188c0.754,0,1.234-0.216,1.441-0.646
			c0.049-0.1,0.243-0.991,0.58-2.677c0.225-1.134,0.446-1.985,0.664-2.561C528.565,271.761,528.565,271.761,528.567,271.759"/>
		<path fill="#FFFFFF" d="M531.356,268.112c-0.359,0-0.722,0.137-1.082,0.412c-0.047,0.036-0.3,0.307-0.421,0.432
			c0.032,0.582-0.118,1.089-0.198,1.308c0.059-0.045,0.109-0.087,0.165-0.123c0.301-0.193,0.688-0.289,1.159-0.289
			c0.47,0,0.791-0.093,0.963-0.275c0.172-0.185,0.259-0.482,0.259-0.894C532.198,268.301,531.92,268.112,531.356,268.112"/>
		<path fill="#FFFFFF" d="M540.385,268.765c-0.402-0.367-0.927-0.551-1.57-0.551c-0.646,0-1.436,0.19-2.37,0.578
			c-1.422,0.587-2.475,1.618-3.159,3.095c-0.325,0.699-0.484,1.351-0.484,1.954v0.224c0,1.086,0.334,1.952,1.005,2.604
			c0.669,0.652,1.517,0.978,2.543,0.978c1.025,0,1.915-0.162,2.668-0.486c0.754-0.323,1.131-0.676,1.131-1.056
			c0-0.336-0.153-0.506-0.468-0.506c-0.148,0-0.593,0.107-1.334,0.318c-0.742,0.212-1.314,0.318-1.711,0.318
			c-0.691,0-1.226-0.2-1.599-0.6c-0.172-0.182-0.299-0.389-0.393-0.615c-0.014-0.01-0.024-0.035-0.033-0.079v-0.004
			c-0.081-0.231-0.126-0.489-0.132-0.768c-0.144-1.094,0.007-1.835,0.644-2.895l0.025,0.001c0.131-0.238,0.362-0.508,0.697-0.807
			c0.554-0.489,1.069-0.733,1.549-0.733c0.046,0,0.103-0.007,0.178-0.019h0.364c0.318,0,0.644,0.09,0.973,0.274
			c0.33,0.185,0.495,0.457,0.495,0.82v0.185c0,0.269-0.069,0.426-0.206,0.469c-0.226,0.074-0.667,0.111-1.326,0.111l-1.368,0.103
			l-0.119,0.01l-0.301,0.026l-0.232,0.027c-0.114,0-0.265,0.017-0.45,0.045c-0.107,0.194-0.446,0.859-0.487,1.607
			c0.045-0.021,0.097-0.038,0.153-0.053c0.123-0.031,0.929-0.151,2.414-0.359c1.487-0.209,2.393-0.403,2.717-0.585
			c0.529-0.313,0.795-1.007,0.795-2.084C540.985,269.65,540.784,269.132,540.385,268.765"/>
		<path fill="#FFFFFF" d="M513.815,268.453c0.078-0.026,0.205-0.055,0.274-0.093c0.021-0.013,0.041-0.027,0.06-0.043
			c-0.044-0.159-0.184-0.347-0.302-0.469C513.851,267.95,513.81,268.361,513.815,268.453"/>
		<path fill="#FFFFFF" d="M517.665,269.956c-0.003,0-0.004,0-0.006,0H517.665L517.665,269.956z"/>
		<path fill="#FFFFFF" d="M517.481,269.688c0.063,0.294,0.261,0.505,0.493,0.595c0.062-0.095,0.121-0.189,0.178-0.283
			c0.046-0.074,0.098-0.139,0.119-0.212C518.272,269.785,518.043,269.594,517.481,269.688"/>
		<path fill="#FFFFFF" d="M511.711,270.27c0.487,0.577,1.547,0.45,2.197,0.25c0.436-0.136,0.87-0.274,1.309-0.41
			c0.35-0.108,2.801-1.371,3.367-0.799c0.281-0.362,0.161-0.773,0.11-0.957c-0.641-2.29-6.486,3.033-6.778-0.025
			C511.738,268.493,511.348,269.84,511.711,270.27"/>
		<path fill="#FFFFFF" d="M519.193,273.611c-0.11-0.426-0.063-0.967,0.048-1.378c0.082-0.318,0.188-0.632,0.304-0.932
			c0.295-0.757,0.91-1.373,1.146-1.936c0.216-0.513,0.312-1.326-0.196-1.68c-0.321-0.228-0.924-0.276-1.287-0.174
			c-0.135,0.038-0.283,0.088-0.401,0.18l-0.002,0.004c0.073,0.044,0.137,0.11,0.191,0.188c0.133,0.18,0.202,0.39,0.234,0.607
			c0.056,0.244,0.027,0.59-0.103,0.825c-0.784,1.441-1.141,2.311-1.28,3.15c-0.057,0.35,0.01,0.529-0.044,0.884
			C518.393,273.257,518.921,273.385,519.193,273.611"/>
		<path fill="#FFFFFF" d="M521.234,270.017c0.168,0.089,0.341,0.154,0.529,0.196c0.344,0.079,1.747,0.246,2.17-0.241
			c0.269-0.31,0.098-1.619-0.542-1.518c-1.164,0.183-1.915,0.018-2.027-0.101c0.055,0.728-0.173,1.162-0.389,1.534
			C520.975,269.891,521.179,269.988,521.234,270.017"/>
		<path fill="#FFFFFF" d="M519.171,267.003c0.25-0.034,0.688-0.133,1.188,0.069c0.044-1.151-0.198-2.266-0.225-2.385
			c-0.111-0.519-1.461-1.029-1.37-0.645C518.911,264.671,519.185,266.482,519.171,267.003"/>
		<path fill="#FFFFFF" d="M512.258,266.905c-0.069,1.246-0.082,2.157,1.072,1.849c0,0,0.015-0.942,0.019-0.957l0.001-0.007
			c0.06-0.418,0.06-3.456-0.322-4.034c-0.232-0.354-1.167-0.054-1.051,0.36C512.143,264.717,512.299,266.188,512.258,266.905"/>
		<path fill="#FFFFFF" d="M506.965,270.165c0.355,0.219,3.761,0.052,4.135-0.069c-0.111-0.549,0.001-1.091,0.159-1.533
			c-0.649,0.167-3.648,0.264-3.864,0.245C506.787,268.759,506.53,269.897,506.965,270.165"/>
		<path fill="#FFFFFF" d="M516.99,276.075c-0.08,0.025-0.206,0.054-0.274,0.093c-0.023,0.013-0.043,0.026-0.063,0.042
			c0.047,0.16,0.185,0.348,0.306,0.47C516.953,276.576,516.994,276.168,516.99,276.075"/>
		<path fill="#FFFFFF" d="M513.14,274.572c0.003,0,0.003,0,0.006,0H513.14C513.14,274.572,513.14,274.572,513.14,274.572"/>
		<path fill="#FFFFFF" d="M513.324,274.842c-0.064-0.297-0.263-0.504-0.494-0.595c-0.062,0.094-0.122,0.19-0.179,0.284
			c-0.045,0.072-0.098,0.138-0.118,0.211C512.533,274.742,512.761,274.935,513.324,274.842"/>
		<path fill="#FFFFFF" d="M519.094,274.258c-0.487-0.576-1.548-0.449-2.196-0.249c-0.436,0.135-0.87,0.274-1.309,0.41
			c-0.352,0.107-2.802,1.37-3.367,0.798c-0.28,0.363-0.162,0.775-0.111,0.958c0.642,2.29,6.485-3.035,6.777,0.023
			C519.067,276.035,519.457,274.688,519.094,274.258"/>
		<path fill="#FFFFFF" d="M511.611,270.917c0.113,0.427,0.064,0.968-0.045,1.38c-0.083,0.317-0.188,0.63-0.304,0.931
			c-0.296,0.756-0.91,1.372-1.146,1.935c-0.217,0.514-0.313,1.326,0.196,1.682c0.318,0.226,0.922,0.275,1.287,0.173
			c0.135-0.039,0.281-0.088,0.4-0.18c0,0,0.002-0.001,0.003-0.003c-0.073-0.045-0.138-0.112-0.192-0.188
			c-0.131-0.179-0.202-0.391-0.234-0.607c-0.055-0.243-0.023-0.59,0.103-0.824c0.785-1.443,1.142-2.313,1.281-3.151
			c0.057-0.351-0.01-0.53,0.044-0.885C512.412,271.271,511.884,271.143,511.611,270.917"/>
		<path fill="#FFFFFF" d="M509.57,274.511c-0.167-0.089-0.343-0.153-0.528-0.196c-0.345-0.078-1.748-0.245-2.171,0.241
			c-0.271,0.31-0.098,1.62,0.54,1.519c1.166-0.183,1.916-0.017,2.03,0.101c-0.055-0.726,0.172-1.162,0.386-1.534
			C509.828,274.638,509.627,274.541,509.57,274.511"/>
		<path fill="#FFFFFF" d="M511.634,277.527c-0.249,0.032-0.688,0.132-1.187-0.07c-0.045,1.153,0.197,2.266,0.226,2.385
			c0.109,0.52,1.46,1.028,1.37,0.646C511.893,279.857,511.619,278.046,511.634,277.527"/>
		<path fill="#FFFFFF" d="M518.548,277.623c0.067-1.245,0.081-2.155-1.074-1.847c0,0-0.014,0.94-0.019,0.956v0.009
			c-0.061,0.416-0.061,3.453,0.32,4.031c0.234,0.355,1.168,0.055,1.052-0.358C518.661,279.811,518.508,278.34,518.548,277.623"/>
		<path fill="#FFFFFF" d="M523.84,274.365c-0.354-0.221-3.759-0.054-4.136,0.067c0.111,0.55,0,1.093-0.155,1.534
			c0.647-0.169,3.645-0.264,3.862-0.245C524.018,275.769,524.274,274.631,523.84,274.365"/>
	</g>
</g>
<path fill="#018ECB" d="M400.527,516.51c0,0.416-0.28,0.754-0.625,0.754H295.138c-0.344,0-0.624-0.338-0.624-0.754V452.73
	c0-0.422,0.28-0.76,0.624-0.76h104.764c0.347,0,0.625,0.342,0.625,0.76V516.51L400.527,516.51z"/>
<text transform="matrix(1 0 0 1 329.8445 488.1912)" fill="#FFFFFF" font-family="'Montserrat-Regular'" font-size="12.1574">Avaaz</text>
<image overflow="visible" width="300" height="147" xlink:href="logos/logo-mudamos-300x147.png"  transform="matrix(0.3278 0 0 0.3278 80.7629 112.7629)">
</image>
</svg>
